<svg xmlns="http://www.w3.org/2000/svg" height="48" viewBox="0 96 960 960" width="48"><path d="M205.176 970Q137.5 970 89.25 922.471 41 874.941 41 806.471 41 738 89.177 690q48.176-48 115.999-48Q273 642 321 690.574q48 48.573 48 116.25Q369 875 320.718 922.5T205.176 970Zm549.648 0q-68.324 0-116.074-47.529-47.75-47.53-47.75-116Q591 738 638.927 690q47.926-48 116.249-48 69.324 0 116.574 48.574Q919 739.147 919 806.824 919 875 871.323 922.5 823.647 970 754.824 970Zm-275-461Q412 509 363.5 460.157T315 344.824q0-68.324 48.676-115.574Q412.353 182 480.176 182 548 182 596.5 229.427 645 276.853 645 344.676q0 67.824-48.677 116.074Q547.647 509 479.824 509Z"/></svg>