<?xml version="1.0" encoding="UTF-8"?>
<svg version="1.1" xmlns="http://www.w3.org/2000/svg" width="500" height="500">
<path d="M0 0 C11.8426748 0.15811315 19.75498862 3.81694364 29.50634766 10.46191406 C30.49634766 11.12191406 31.48634766 11.78191406 32.50634766 12.46191406 C32.50634766 13.12191406 32.50634766 13.78191406 32.50634766 14.46191406 C33.07353516 14.67847656 33.64072266 14.89503906 34.22509766 15.11816406 C40.8368378 19.01275072 46.31029916 28.45954901 48.79150391 35.58300781 C52.71292628 51.37584 52.2827298 65.73752014 44.43603516 80.25878906 C36.96639081 92.65779384 26.64132665 101.53200656 12.70947266 105.91894531 C-1.02326364 109.30343174 -16.66600283 108.79465977 -28.97753906 101.4387207 C-42.26762218 92.97671718 -51.87769168 82.06617507 -55.49365234 66.46191406 C-55.77015625 65.55119141 -55.77015625 65.55119141 -56.05224609 64.62207031 C-57.82011104 55.97048347 -56.93208971 45.88949585 -54.49365234 37.46191406 C-54.28353516 36.68976563 -54.07341797 35.91761719 -53.85693359 35.12207031 C-50.19244055 24.09284003 -41.35415087 13.50175539 -31.49365234 7.46191406 C-30.73052734 6.90503906 -29.96740234 6.34816406 -29.18115234 5.77441406 C-25.53027496 3.99142744 -21.756058 3.08866199 -17.82177734 2.11035156 C-11.85147502 0.44748212 -6.59798472 0.04872238 0 0 Z " fill="#05A754" transform="translate(81.49365234375,361.5380859375)"/>
<path d="M0 0 C3.56540338 2.39044091 6.67840811 4.84196702 9.75 7.84375 C9.75 8.50375 9.75 9.16375 9.75 9.84375 C10.41 9.84375 11.07 9.84375 11.75 9.84375 C22.77607579 24.12876444 24.96633249 38.33263926 23.75 55.84375 C21.5131335 68.48339322 13.10038941 81.37005576 2.8125 89.03125 C1.801875 89.629375 0.79125 90.2275 -0.25 90.84375 C-0.77464844 91.24207031 -1.29929687 91.64039062 -1.83984375 92.05078125 C-11.62741011 99.13980634 -25.11583956 101.00449737 -36.80859375 99.3359375 C-44.39911226 98.026968 -50.87383636 96.32660835 -57.25 91.84375 C-57.98476563 91.33972656 -58.71953125 90.83570312 -59.4765625 90.31640625 C-71.53824975 81.50847312 -79.46204612 70.73198471 -82.74609375 56.11328125 C-85.11414716 40.7484696 -82.21822932 27.97887801 -74.25 14.84375 C-73.79238281 14.00457031 -73.33476562 13.16539063 -72.86328125 12.30078125 C-57.3237528 -11.36595821 -22.18997705 -13.63759006 0 0 Z " fill="#09A857" transform="translate(451.25,27.15625)"/>
<path d="M0 0 C4.95 0 9.9 0 15 0 C15 0.66 15 1.32 15 2 C16.794375 2.2165625 16.794375 2.2165625 18.625 2.4375 C22.1005158 2.87039343 25.54950034 3.39616256 29 4 C29 4.66 29 5.32 29 6 C29.9075 6.0825 30.815 6.165 31.75 6.25 C35.45758451 7.10559643 36.50232761 8.24394771 39 11 C39.99 11.33 40.98 11.66 42 12 C43.75390625 13.77734375 43.75390625 13.77734375 45.5625 15.9375 C47.33130568 18.03343963 49.05994888 20.05994888 51 22 C54 26.61538462 54 26.61538462 54 29 C54.66 29.33 55.32 29.66 56 30 C57.03515625 32.0390625 57.03515625 32.0390625 58.0625 34.625 C58.40410156 35.46289062 58.74570312 36.30078125 59.09765625 37.1640625 C61.22180975 43.8399735 61.12732496 50.51120286 61.0625 57.4375 C61.05798828 58.35982422 61.05347656 59.28214844 61.04882812 60.23242188 C61.03713938 62.48835048 61.02075455 64.74413967 61 67 C60.34 67 59.68 67 59 67 C58.9071875 68.423125 58.9071875 68.423125 58.8125 69.875 C57.45269887 78.88594884 52.11639867 85.45459433 45.98828125 91.87109375 C43.85914014 94.03521666 43.85914014 94.03521666 42 97 C28.80510934 105.86753405 13.83827229 109.33914735 -1.9375 107.5625 C-15.88754289 104.75364001 -28.78223465 96.5347987 -36.75 84.8125 C-41.68178623 76.55462539 -45.51618407 67.67631858 -46 58 C-46.05027344 57.33097656 -46.10054688 56.66195312 -46.15234375 55.97265625 C-46.79151067 41.83428405 -41.17968855 29.1081537 -32.328125 18.3984375 C-28.99146744 14.9610084 -25.27344526 12.2805589 -21.3203125 9.59375 C-18.94317233 8.06484625 -18.94317233 8.06484625 -17 6 C-15.04230816 5.25354196 -13.05869611 4.57386312 -11.0625 3.9375 C-10.00160156 3.59589844 -8.94070313 3.25429688 -7.84765625 2.90234375 C-6.90792969 2.60457031 -5.96820313 2.30679687 -5 2 C-4.01 1.67 -3.02 1.34 -2 1 C-1.34 1.33 -0.68 1.66 0 2 C0 1.34 0 0.68 0 0 Z " fill="#10448C" transform="translate(414,361)"/>
<path d="M0 0 C19.89820085 -0.65759048 35.65136995 1.74533532 50.80859375 15.75390625 C53.05253855 18.05384967 55.01916746 20.47244085 57 23 C57.99 23.99 57.99 23.99 59 25 C59 25.99 59 26.98 59 28 C59.66 28 60.32 28 61 28 C61.50559908 29.43554025 62.0042749 30.8735202 62.5 32.3125 C62.7784375 33.11300781 63.056875 33.91351563 63.34375 34.73828125 C64 37 64 37 64 40 C64.66 40 65.32 40 66 40 C66.495 50.395 66.495 50.395 67 61 C66.34 61 65.68 61 65 61 C64.979375 62.19625 64.95875 63.3925 64.9375 64.625 C63.53591397 76.81687845 55.29225927 88.14682036 45.94140625 95.65234375 C44.32472796 96.8119155 42.6657802 97.91214354 41 99 C40.34 99.66 39.68 100.32 39 101 C36.63026425 101.90386009 34.28703119 102.72783545 31.875 103.5 C31.19429443 103.72067139 30.51358887 103.94134277 29.81225586 104.16870117 C22.32709247 106.57071667 15.89765689 108.28205917 8 108 C8 107.34 8 106.68 8 106 C7.071875 106.0825 6.14375 106.165 5.1875 106.25 C-6.22926685 106.20396465 -17.97094166 98.51415148 -26.12109375 91.0390625 C-35.86155813 80.46832985 -40.17146213 67.9332784 -40.25 53.875 C-40.270625 52.97523437 -40.29125 52.07546875 -40.3125 51.1484375 C-40.38811688 37.99110119 -35.15549354 25.61880764 -26.16796875 15.9765625 C-18.46240965 8.95131402 -10.06543555 3.88448353 0 1 C0 0.67 0 0.34 0 0 Z " fill="#0E428A" transform="translate(66,19)"/>
<path d="M0 0 C1.50195312 1.25756836 1.50195312 1.25756836 3 3 C2.9763801 5.93181973 2.80629468 8.66079191 2.5 11.5625 C1.9328514 18.821716 2.19801251 24.20390671 5 31 C5.42667969 32.22074219 5.85335938 33.44148438 6.29296875 34.69921875 C9.4121306 43.60804303 13.22055346 51.8438189 18 60 C18.57379395 61.00087646 18.57379395 61.00087646 19.15917969 62.02197266 C27.87896451 77.1768075 38.15476977 90.96234638 50.01171875 103.81640625 C56.21661132 110.63081675 61.63057659 118.1125822 67.125 125.5 C67.71112061 126.2830249 68.29724121 127.0660498 68.90112305 127.87280273 C74.70533792 135.735865 79.76124519 143.65931088 83.25 152.8125 C83.49234375 153.44091797 83.7346875 154.06933594 83.984375 154.71679688 C84.66211834 156.47561451 85.33133692 158.23771025 86 160 C86.38414063 160.89460937 86.76828125 161.78921875 87.1640625 162.7109375 C88.30882556 165.84566252 88.12960884 168.69497455 88 172 C83.52396691 171.49327927 79.16355076 170.8407085 74.75 169.9375 C57.38312473 166.78856108 41.12489491 170.63839598 26.4375 180.25 C25.633125 180.8275 24.82875 181.405 24 182 C21 184 21 184 18 184 C2.49273103 163.73307422 -4.14656735 134.37450615 -9 110 C-9.18079102 109.1121582 -9.36158203 108.22431641 -9.54785156 107.30957031 C-12.04086945 94.5173652 -12.27869221 81.73787689 -12.3125 68.75 C-12.31814972 67.55691223 -12.31814972 67.55691223 -12.32391357 66.33972168 C-12.361092 50.85510621 -10.89555987 35.67557927 -8.125 20.4375 C-7.90263672 19.09848633 -7.90263672 19.09848633 -7.67578125 17.73242188 C-6.61210608 11.81302634 -5.06264192 6.22782011 -2 1 C-1.34 0.67 -0.68 0.34 0 0 Z M0 3 C0 4.65 0 6.3 0 8 C0.33 8 0.66 8 1 8 C1 6.35 1 4.7 1 3 C0.67 3 0.34 3 0 3 Z " fill="#0AA857" transform="translate(17,184)"/>
<path d="M0 0 C1.2065625 0.0309375 1.2065625 0.0309375 2.4375 0.0625 C24.01790457 38.62748224 33.78409702 81.93228904 32.4375 126.0625 C32.39302734 127.95355469 32.39302734 127.95355469 32.34765625 129.8828125 C31.83325884 142.10288761 29.64645576 154.05303712 27.4375 166.0625 C27.29521973 166.85188965 27.15293945 167.6412793 27.00634766 168.45458984 C24.84172468 180.29951432 24.84172468 180.29951432 21.4375 183.0625 C19.4575 182.0725 19.4575 182.0725 17.4375 181.0625 C17.53289062 180.41925781 17.62828125 179.77601563 17.7265625 179.11328125 C21.2133601 150.69182636 3.09645252 121.83374262 -13.625 100.25 C-15.26600022 98.18365252 -16.91192065 96.12120382 -18.5625 94.0625 C-19.46985091 92.89118043 -20.37472712 91.71794042 -21.27734375 90.54296875 C-25.53917227 85.01413038 -29.84706056 79.66195962 -34.625 74.5625 C-39.7494986 69.02512711 -44.05702382 63.10352651 -48.30371094 56.88623047 C-49.55523441 55.07302636 -50.84020301 53.28798174 -52.1328125 51.50390625 C-60.42524225 39.84938218 -66.38333029 27.03495087 -69.5625 13.0625 C-68.2425 12.0725 -66.9225 11.0825 -65.5625 10.0625 C-64.9025 10.3925 -64.2425 10.7225 -63.5625 11.0625 C-63.5625 11.7225 -63.5625 12.3825 -63.5625 13.0625 C-62.67498047 13.15337891 -62.67498047 13.15337891 -61.76953125 13.24609375 C-60.97933594 13.32988281 -60.18914062 13.41367188 -59.375 13.5 C-58.59769531 13.58121094 -57.82039063 13.66242188 -57.01953125 13.74609375 C-54.5625 14.0625 -54.5625 14.0625 -52.20703125 14.58203125 C-39.26329209 16.93370026 -27.61230552 13.96999559 -15.75390625 8.9296875 C-13.70219856 8.11778178 -11.71315521 7.54260071 -9.5625 7.0625 C-9.5625 6.4025 -9.5625 5.7425 -9.5625 5.0625 C-7.59527992 3.68126037 -5.59381672 2.34761874 -3.5625 1.0625 C-2.5625 0.0625 -2.5625 0.0625 0 0 Z " fill="#05A654" transform="translate(463.5625,119.9375)"/>
<path d="M0 0 C1.875 0.75 1.875 0.75 2.875 2.75 C2.59387936 4.75800456 2.26432033 6.76014051 1.875 8.75 C1.215 8.75 0.555 8.75 -0.125 8.75 C0.205 9.74 0.535 10.73 0.875 11.75 C0.20833333 14.08333333 -0.45833333 16.41666667 -1.125 18.75 C-1.86787991 28.95367401 -1.194712 38.338791 2.875 47.75 C3.24625 49.0803125 3.24625 49.0803125 3.625 50.4375 C5.72927057 56.01381702 8.88866482 61.23760345 12.5859375 65.9140625 C13.875 67.75 13.875 67.75 13.5625 70 C13.2221875 70.86625 13.2221875 70.86625 12.875 71.75 C11.885 71.75 10.895 71.75 9.875 71.75 C9.875 72.41 9.875 73.07 9.875 73.75 C8.740625 74.03875 7.60625 74.3275 6.4375 74.625 C5.261875 74.99625 4.08625 75.3675 2.875 75.75 C2.545 76.41 2.215 77.07 1.875 77.75 C-0.6109051 78.97815549 -3.07596225 80.10638395 -5.625 81.1875 C-6.36041016 81.50315918 -7.09582031 81.81881836 -7.85351562 82.14404297 C-12.88035928 84.27856257 -17.89980273 86.16045779 -23.125 87.75 C-24.21039063 88.11609375 -25.29578125 88.4821875 -26.4140625 88.859375 C-45.56383172 95.25100619 -65.15723588 98.59469798 -85.22314453 100.47558594 C-87.72391413 100.7120713 -90.2183312 100.98110682 -92.71484375 101.2578125 C-116.19172081 103.52642594 -145.02515025 100.43996088 -167.125 91.75 C-167.125 88.75 -167.125 88.75 -165.9765625 87.046875 C-163.34476744 85.203508 -161.64400966 85.61840516 -158.5 86 C-157.51773438 86.10828125 -156.53546875 86.2165625 -155.5234375 86.328125 C-153.125 86.75 -153.125 86.75 -152.125 87.75 C-149.60108101 87.49524194 -149.60108101 87.49524194 -147.125 86.75 C-146.795 86.09 -146.465 85.43 -146.125 84.75 C-143.10503217 84.20091494 -140.19880605 83.75 -137.125 83.75 C-134.17289363 83.15957873 -131.79110372 82.12605353 -129.125 80.75 C-128.135 80.42 -127.145 80.09 -126.125 79.75 C-123.5930992 78.62376988 -121.07528496 77.47974448 -118.5625 76.3125 C-117.87736328 75.99990234 -117.19222656 75.68730469 -116.48632812 75.36523438 C-113.65303 74.05007244 -111.35166473 72.97666473 -109.125 70.75 C-108.135 70.42 -107.145 70.09 -106.125 69.75 C-105.465 69.09 -104.805 68.43 -104.125 67.75 C-102.46573679 66.73776317 -100.79772426 65.73983399 -99.125 64.75 C-89.74697074 58.55817875 -80.85453979 51.81918935 -72.125 44.75 C-71.56151855 44.29818359 -70.99803711 43.84636719 -70.41748047 43.38085938 C-67.32131671 40.94971592 -67.32131671 40.94971592 -65.125 37.75 C-64.135 37.09 -63.145 36.43 -62.125 35.75 C-61.135 34.76 -61.135 34.76 -60.125 33.75 C-59.39152344 33.31945312 -58.65804687 32.88890625 -57.90234375 32.4453125 C-54.60462635 30.43235982 -51.67846034 28.05568304 -48.6875 25.625 C-43.74274776 21.67225052 -38.69889021 17.98922782 -33.375 14.5625 C-32.77888916 14.17626465 -32.18277832 13.7900293 -31.56860352 13.39208984 C-27.38641017 10.75 -27.38641017 10.75 -25.125 10.75 C-24.795 10.09 -24.465 9.43 -24.125 8.75 C-21.44538681 7.20541947 -18.68614783 6.19780912 -15.75 5.25 C-14.96625 4.99347656 -14.1825 4.73695313 -13.375 4.47265625 C-11.50207378 3.87110877 -9.62637252 3.27820987 -7.75 2.6875 C-0.16924779 -0.0199115 -0.16924779 -0.0199115 0 0 Z " fill="#10448B" transform="translate(360.125,388.25)"/>
<path d="M0 0 C2.55347904 -0.01641798 5.10691492 -0.04351536 7.66015625 -0.08203125 C27.94296547 -0.38495632 51.99966844 -0.35703709 70.87304688 8.35009766 C71.20304688 9.34009766 71.53304687 10.33009766 71.87304688 11.35009766 C71.21304688 11.35009766 70.55304688 11.35009766 69.87304688 11.35009766 C69.54304687 12.01009766 69.21304688 12.67009766 68.87304688 13.35009766 C68.87304688 12.69009766 68.87304688 12.03009766 68.87304688 11.35009766 C68.31617188 11.51638672 67.75929688 11.68267578 67.18554688 11.85400391 C64.64702314 12.39858586 62.46567459 12.37633343 59.87304688 12.28759766 C53.79648839 12.23027163 47.75511091 12.7566288 41.87304688 14.35009766 C41.54304687 15.01009766 41.21304688 15.67009766 40.87304688 16.35009766 C39.15039063 16.92041016 39.15039063 16.92041016 36.81054688 17.47509766 C26.3658784 20.41641234 11.58651534 26.63662919 3.87304688 34.35009766 C3.04804688 34.82447266 2.22304687 35.29884766 1.37304688 35.78759766 C-1.36398298 37.25975682 -1.36398298 37.25975682 -3.12695312 40.35009766 C-4.45289417 40.71171794 -5.7863377 41.04737804 -7.12695312 41.35009766 C-7.62195313 42.34009766 -7.62195313 42.34009766 -8.12695312 43.35009766 C-10.18945312 44.47509766 -10.18945312 44.47509766 -12.12695312 45.35009766 C-12.12695312 46.01009766 -12.12695312 46.67009766 -12.12695312 47.35009766 C-12.71613525 47.46240723 -13.30531738 47.5747168 -13.91235352 47.69042969 C-16.33272458 48.41139128 -17.62556716 49.30188571 -19.56054688 50.90478516 C-20.20266113 51.43160889 -20.84477539 51.95843262 -21.50634766 52.5012207 C-22.18552246 53.0701001 -22.86469727 53.63897949 -23.56445312 54.22509766 C-24.27456543 54.81009033 -24.98467773 55.39508301 -25.71630859 55.99780273 C-29.03019047 58.73611565 -32.31760749 61.50324792 -35.57617188 64.30712891 C-36.63454492 65.21754179 -37.69313287 66.12770492 -38.75195312 67.03759766 C-39.26532227 67.47885986 -39.77869141 67.92012207 -40.30761719 68.37475586 C-45.41203683 72.70141224 -50.83496569 76.53806752 -56.32617188 80.35400391 C-59.10551488 82.21836557 -59.10551488 82.21836557 -61.12695312 84.35009766 C-62.11695313 84.68009766 -63.10695312 85.01009766 -64.12695312 85.35009766 C-64.78695312 86.01009766 -65.44695312 86.67009766 -66.12695312 87.35009766 C-67.25318524 88.06925792 -68.40134138 88.75475166 -69.56445312 89.41259766 C-70.45970703 89.925 -70.45970703 89.925 -71.37304688 90.44775391 C-73.63003343 91.60892071 -75.5713413 92.35009766 -78.12695312 92.35009766 C-78.45695312 93.01009766 -78.78695312 93.67009766 -79.12695312 94.35009766 C-81.46028646 94.68343099 -83.79361979 95.01676432 -86.12695312 95.35009766 C-86.45695312 96.01009766 -86.78695312 96.67009766 -87.12695312 97.35009766 C-91.16969949 98.12754888 -95.02277051 98.39255472 -99.12695312 98.35009766 C-98.81567797 96.76652307 -98.50288023 95.18324773 -98.18945312 93.60009766 C-98.01542969 92.71837891 -97.84140625 91.83666016 -97.66210938 90.92822266 C-97.35173518 89.43298931 -97.0143779 87.94187995 -96.60839844 86.46972656 C-93.0683402 70.88413546 -96.78350716 54.16436485 -104.67382812 40.63525391 C-107.66837188 35.73278565 -107.66837188 35.73278565 -112.12695312 32.35009766 C-110.78360979 28.32006764 -108.33060897 27.50042117 -104.75195312 25.66259766 C-104.09364502 25.3180957 -103.43533691 24.97359375 -102.75708008 24.61865234 C-95.09050787 20.69145896 -87.15094106 17.41531725 -79.17089844 14.18701172 C-77.47641785 13.49318952 -75.79574712 12.76575009 -74.11914062 12.02978516 C-68.64445543 9.65331409 -63.42411441 8.58209996 -57.49804688 7.84228516 C-56.71558594 7.67986328 -55.933125 7.51744141 -55.12695312 7.35009766 C-54.79695313 6.69009766 -54.46695313 6.03009766 -54.12695312 5.35009766 C-51.80200035 4.96260553 -49.46699483 4.63251648 -47.12695312 4.35009766 C-46.13695312 4.02009766 -45.14695312 3.69009766 -44.12695312 3.35009766 C-42.95132813 3.18509766 -41.77570313 3.02009766 -40.56445312 2.85009766 C-37.27598068 2.55536676 -37.27598068 2.55536676 -35.12695312 1.35009766 C-23.53639163 -0.30294846 -11.67642535 0.05463173 0 0 Z " fill="#14478D" transform="translate(237.126953125,-0.35009765625)"/>
<path d="M0 0 C2.47598865 1.19805902 2.96367818 2.42179364 3.9375 4.9375 C4.5975 4.9375 5.2575 4.9375 5.9375 4.9375 C7.64858689 6.55852968 9.31003306 8.23253463 10.9375 9.9375 C11.700625 10.659375 12.46375 11.38125 13.25 12.125 C14.9375 13.9375 14.9375 13.9375 14.9375 15.9375 C15.9275 16.2675 16.9175 16.5975 17.9375 16.9375 C17.9375 17.5975 17.9375 18.2575 17.9375 18.9375 C18.9275 19.2675 19.9175 19.5975 20.9375 19.9375 C20.9375 20.5975 20.9375 21.2575 20.9375 21.9375 C22.2575 22.5975 23.5775 23.2575 24.9375 23.9375 C24.9375 24.5975 24.9375 25.2575 24.9375 25.9375 C25.494375 26.14375 26.05125 26.35 26.625 26.5625 C28.88446811 27.90596753 29.9373656 28.98907702 31.5625 31 C33.60869397 33.94574713 33.60869397 33.94574713 35.9375 34.9375 C35.9375 35.5975 35.9375 36.2575 35.9375 36.9375 C36.9275 36.9375 37.9175 36.9375 38.9375 36.9375 C39.5625 38.8125 39.5625 38.8125 39.9375 40.9375 C38.9475 41.9275 38.9475 41.9275 37.9375 42.9375 C32.6575 42.6075 27.3775 42.2775 21.9375 41.9375 C22.4325 62.2325 22.4325 62.2325 22.9375 82.9375 C42.2425 83.4325 42.2425 83.4325 61.9375 83.9375 C60.9375 88.9375 60.9375 88.9375 58.5 91.25 C55.9375 92.9375 55.9375 92.9375 53.9375 92.9375 C53.9375 93.5975 53.9375 94.2575 53.9375 94.9375 C52.29296875 96.5234375 52.29296875 96.5234375 50.125 98.3125 C47.87499143 100.17316282 46.03399715 101.80622703 44.30078125 104.1640625 C43.85089844 104.74929688 43.40101563 105.33453125 42.9375 105.9375 C42.2775 105.9375 41.6175 105.9375 40.9375 105.9375 C40.9375 106.5975 40.9375 107.2575 40.9375 107.9375 C40.2775 107.9375 39.6175 107.9375 38.9375 107.9375 C38.67453125 108.51628906 38.4115625 109.09507812 38.140625 109.69140625 C34.81008371 115.90913756 29.3442934 120.56057201 23.9375 124.9375 C23.6075 125.5975 23.2775 126.2575 22.9375 126.9375 C18.46141099 128.42952967 14.06490986 128.20368753 9.375 128.25 C8.42302734 128.27900391 7.47105469 128.30800781 6.49023438 128.33789062 C-2.18639184 128.41467493 -9.53635619 126.57636099 -16 120.5625 C-21.79539489 114.18074751 -23.19263867 107.91780334 -23.17602539 99.49487305 C-23.17594986 98.21392258 -23.17587433 96.93297211 -23.17579651 95.61320496 C-23.17069065 94.22520915 -23.16547467 92.83721375 -23.16015625 91.44921875 C-23.15828975 90.02146962 -23.15686694 88.59371985 -23.15586853 87.16596985 C-23.15206165 83.41936455 -23.14224707 79.6727984 -23.13116455 75.9262085 C-23.12091102 72.09859751 -23.11636248 68.27098016 -23.11132812 64.44335938 C-23.10062307 56.94138639 -23.08304118 49.43945368 -23.0625 41.9375 C-29.0025 41.9375 -34.9425 41.9375 -41.0625 41.9375 C-39.875 37.1875 -39.875 37.1875 -37.0625 34.9375 C-36.4025 34.9375 -35.7425 34.9375 -35.0625 34.9375 C-34.86068115 34.40970947 -34.6588623 33.88191895 -34.45092773 33.33813477 C-32.44289973 29.86619184 -29.695947 27.32603083 -26.84765625 24.52734375 C-26.23611191 23.9186293 -25.62456757 23.30991486 -24.99449158 22.68275452 C-23.0426485 20.74208145 -21.08397018 18.80847591 -19.125 16.875 C-17.81008772 15.57012398 -16.49562938 14.26479036 -15.18164062 12.95898438 C-12.28287703 10.07984931 -9.37979143 7.20515538 -6.47279358 4.33433533 C-5.46111477 3.33231084 -4.47678689 2.30238253 -3.51145935 1.25563049 C-2.0625 -0.0625 -2.0625 -0.0625 0 0 Z " fill="#0CA959" transform="translate(168.0625,181.0625)"/>
<path d="M0 0 C3.36179774 1.44077046 5.59156268 3.24750021 8 6 C8 6.66 8 7.32 8 8 C8.99 8.33 9.98 8.66 11 9 C15.00616198 12.66277667 18.49372104 16.79626875 22.0859375 20.859375 C25.20048263 24.34258057 28.41022938 27.50852449 32 30.5 C39.21875 36.515625 39.21875 36.515625 41.25 40.375 C40.87604718 44.3015046 38.54007446 46.00143018 35.76171875 48.64453125 C34 50 34 50 32 50 C31.34 51.32 30.68 52.64 30 54 C29.34 54 28.68 54 28 54 C27.773125 54.5775 27.54625 55.155 27.3125 55.75 C25.65273655 58.59530878 23.57933333 59.93653334 21 62 C19.18045807 63.97776296 17.43700011 66.01095462 15.6875 68.05078125 C12.4957576 71.73753925 9.00003862 75.05906576 5.375 78.3125 C4.80523437 78.82425781 4.23546875 79.33601563 3.6484375 79.86328125 C2 81 2 81 -1 81 C-2 76 -2 76 -1 63 C-14.53 63 -28.06 63 -42 63 C-42 75.87 -42 88.74 -42 102 C-46 102 -46 102 -49 101 C-50.3671875 99.609375 -50.3671875 99.609375 -51.875 97.75 C-56.74171704 91.99937067 -62.13172455 86.77815016 -67.49316406 81.49462891 C-68.91257852 80.08671327 -70.31245483 78.65917799 -71.7109375 77.23046875 C-73.98717726 74.87610166 -73.98717726 74.87610166 -77 73 C-77 72.34 -77 71.68 -77 71 C-77.66 71 -78.32 71 -79 71 C-79 70.34 -79 69.68 -79 69 C-79.66 69 -80.32 69 -81 69 C-81 68.34 -81 67.68 -81 67 C-81.99 66.67 -82.98 66.34 -84 66 C-87.81591119 61.521231 -87.44930005 56.83075939 -87.375 51.25 C-87.38660156 50.3940625 -87.39820313 49.538125 -87.41015625 48.65625 C-87.37564445 41.06365336 -86.11283814 33.56982016 -80.875 27.75 C-80.35679687 27.14671875 -79.83859375 26.5434375 -79.3046875 25.921875 C-70.93626783 18.94346402 -63.24859481 18.2593538 -52.68359375 18.29296875 C-51.21669989 18.27983162 -49.74982404 18.26452126 -48.28297424 18.24714661 C-44.45085995 18.20751809 -40.61922124 18.19712066 -36.78692627 18.19311523 C-32.8649676 18.18374158 -28.94328352 18.14630198 -25.02148438 18.11132812 C-17.3476535 18.04697845 -9.67410673 18.01355333 -2 18 C-2.02320313 16.95199219 -2.04640625 15.90398437 -2.0703125 14.82421875 C-2.08907303 13.44531963 -2.10727293 12.0664128 -2.125 10.6875 C-2.14175781 9.99720703 -2.15851563 9.30691406 -2.17578125 8.59570312 C-2.21217794 4.82864604 -2.14378864 3.21568296 0 0 Z " fill="#04A653" transform="translate(272,120)"/>
<path d="M0 0 C1.32 0.33 2.64 0.66 4 1 C4 1.66 4 2.32 4 3 C5.32 3.66 6.64 4.32 8 5 C8 5.66 8 6.32 8 7 C8.99 7.33 9.98 7.66 11 8 C11 8.66 11 9.32 11 10 C11.66 10 12.32 10 13 10 C13 10.66 13 11.32 13 12 C13.88401489 12.39396973 13.88401489 12.39396973 14.78588867 12.79589844 C17.10724251 14.05832176 18.59055869 15.37550599 20.42578125 17.265625 C21.05806641 17.90886719 21.69035156 18.55210937 22.34179688 19.21484375 C23.31729492 20.22224609 23.31729492 20.22224609 24.3125 21.25 C28.6179923 25.67279633 32.91207912 29.90738962 37.73901367 33.76464844 C38.15513916 34.17231445 38.57126465 34.57998047 39 35 C39 35.66 39 36.32 39 37 C39.639375 37.226875 40.27875 37.45375 40.9375 37.6875 C43 39 43 39 43.62768555 41.28198242 C44.22599794 45.64985904 43.9934276 49.918106 43.8125 54.3125 C43.79380859 55.22451172 43.77511719 56.13652344 43.75585938 57.07617188 C43.41280544 65.47196555 40.79783112 71.8156468 35 78 C34.34 78 33.68 78 33 78 C33 78.66 33 79.32 33 80 C25.21145478 84.68999463 17.47855106 84.52323367 8.68359375 84.390625 C7.21672848 84.38315046 5.74985313 84.37746327 4.28297424 84.37347412 C0.45067024 84.35831285 -3.38101259 84.31911576 -7.21307373 84.2746582 C-11.13480226 84.23349804 -15.05663265 84.21541916 -18.97851562 84.1953125 C-26.65265767 84.1526098 -34.32616213 84.08234071 -42 84 C-42 89.94 -42 95.88 -42 102 C-47.04875588 100.99024882 -47.75263839 100.73305721 -51 97.25 C-52.02867187 96.1671875 -52.02867187 96.1671875 -53.078125 95.0625 C-53.71234375 94.381875 -54.3465625 93.70125 -55 93 C-56.36125 91.63875 -56.36125 91.63875 -57.75 90.25 C-58.4925 89.5075 -59.235 88.765 -60 88 C-61.1446875 86.9171875 -61.1446875 86.9171875 -62.3125 85.8125 C-64 84 -64 84 -64 82 C-64.57975586 81.74259033 -65.15951172 81.48518066 -65.75683594 81.2199707 C-69.874442 78.98056305 -72.94485473 75.46636761 -76.25 72.1875 C-77.36761719 71.11918945 -77.36761719 71.11918945 -78.5078125 70.02929688 C-79.21164063 69.33255859 -79.91546875 68.63582031 -80.640625 67.91796875 C-81.28547852 67.28656982 -81.93033203 66.6551709 -82.59472656 66.00463867 C-84.36396234 63.48080355 -84.38078994 62.0213087 -84 59 C-82.6015625 57.33203125 -82.6015625 57.33203125 -80.625 55.8125 C-76.10347442 52.16298292 -72.12879106 48.12448731 -68.1015625 43.94140625 C-66 42 -66 42 -64 42 C-63.67 41.01 -63.34 40.02 -63 39 C-62.34 39 -61.68 39 -61 39 C-61 38.34 -61 37.68 -61 37 C-60.34 37 -59.68 37 -59 37 C-58.731875 36.360625 -58.46375 35.72125 -58.1875 35.0625 C-57 33 -57 33 -54 32 C-52.79117904 29.99983534 -52.79117904 29.99983534 -52 28 C-51.34 28 -50.68 28 -50 28 C-49.95875 27.401875 -49.9175 26.80375 -49.875 26.1875 C-49 24 -49 24 -45.9375 22.25 C-44.968125 21.8375 -43.99875 21.425 -43 21 C-38.73125051 25.26874949 -41.35450035 32.97349405 -41 39 C-21.2 39.495 -21.2 39.495 -1 40 C-1.40777975 27.95796838 -1.40777975 27.95796838 -1.83837891 15.91674805 C-1.88526744 14.40676374 -1.9313815 12.89675511 -1.9765625 11.38671875 C-2.00838623 10.60317017 -2.04020996 9.81962158 -2.07299805 9.0123291 C-2.17997399 5.10267317 -2.22549848 3.33824772 0 0 Z " fill="#0AA858" transform="translate(272,265)"/>
<path d="M0 0 C1.37381836 0.00193359 1.37381836 0.00193359 2.77539062 0.00390625 C12.13497981 0.12484854 18.52571146 2.19673033 25.5625 8.375 C34.25234545 17.52220574 32.70718519 31.07049725 32.44140625 42.8203125 C32.40598976 44.69685013 32.40598976 44.69685013 32.36985779 46.61129761 C32.30668901 49.90253093 32.23843014 53.19360451 32.16760254 56.48468018 C32.09631625 59.85688928 32.03186295 63.22922866 31.96679688 66.6015625 C31.83825836 73.19284818 31.70236407 79.78394531 31.5625 86.375 C37.5025 86.375 43.4425 86.375 49.5625 86.375 C48.44435466 91.96572671 48.44435466 91.96572671 44.8125 94.8125 C42.23711208 96.92669256 40.21405459 98.79313449 38.0625 101.375 C35.4302376 104.53371488 32.59515662 107.05402642 29.48046875 109.71875 C26.0287767 112.69943723 22.98043201 115.87348159 20.0625 119.375 C13.88032946 126.79360465 13.88032946 126.79360465 10.4375 128.3125 C8.5625 128.375 8.5625 128.375 5.5625 126.375 C5.5625 125.385 5.5625 124.395 5.5625 123.375 C4.98290527 123.12065186 4.40331055 122.86630371 3.80615234 122.60424805 C1.31818543 121.24114539 -0.33813431 119.71740389 -2.3359375 117.70703125 C-3.06296875 116.97806641 -3.79 116.24910156 -4.5390625 115.49804688 C-5.28929687 114.73556641 -6.03953125 113.97308594 -6.8125 113.1875 C-7.555 112.44435547 -8.2975 111.70121094 -9.0625 110.93554688 C-12.92989117 107.03740789 -16.60389289 103.06080734 -20.1328125 98.85571289 C-22.41956821 96.26043344 -25.10674104 94.20088191 -27.80078125 92.05078125 C-29.63803842 90.16967546 -30.05164829 88.9417527 -30.4375 86.375 C-23.98173325 84.76105831 -19.72381732 85.76780689 -12.4375 86.375 C-12.7675 72.845 -13.0975 59.315 -13.4375 45.375 C-32.7425 44.88 -32.7425 44.88 -52.4375 44.375 C-51.31194779 39.87279115 -49.66458722 38.39058281 -46.4375 35.375 C-44.93222292 33.88943365 -43.4313523 32.39939627 -41.93359375 30.90625 C-41.11052734 30.08769531 -40.28746094 29.26914063 -39.43945312 28.42578125 C-38.17004883 27.16314453 -38.17004883 27.16314453 -36.875 25.875 C-35.59979492 24.61236328 -35.59979492 24.61236328 -34.29882812 23.32421875 C-33.47705078 22.50566406 -32.65527344 21.68710938 -31.80859375 20.84375 C-31.06536865 20.10576172 -30.32214355 19.36777344 -29.55639648 18.60742188 C-27.34817184 16.3562414 -27.34817184 16.3562414 -25.28930664 13.59570312 C-24.37266235 12.49645508 -24.37266235 12.49645508 -23.4375 11.375 C-22.7775 11.375 -22.1175 11.375 -21.4375 11.375 C-21.4375 10.715 -21.4375 10.055 -21.4375 9.375 C-14.75069832 1.90151577 -9.77655931 -0.26034285 0 0 Z " fill="#0DA959" transform="translate(323.4375,178.625)"/>
<path d="M0 0 C1.44921875 1.82421875 1.44921875 1.82421875 2 4 C0.8046875 6.48046875 0.8046875 6.48046875 -1.125 9.1875 C-8.64301981 20.32421304 -11.14155616 30.22132525 -11.25 43.5625 C-11.2593457 44.35382324 -11.26869141 45.14514648 -11.27832031 45.96044922 C-11.23801076 53.4409721 -9.84556585 60.08934007 -7 67 C-7 67.99 -7 68.98 -7 70 C-16.00742204 72.37037422 -25.1787726 67.8976282 -33.05859375 63.7265625 C-41.92399278 58.52270278 -49.50976924 51.98797038 -57 45 C-58.67725082 43.44422992 -60.35597641 41.89007403 -62.03564453 40.33691406 C-63.1453366 39.30971405 -64.25320832 38.28054253 -65.35888672 37.24902344 C-70.55988984 32.41685121 -75.45246717 27.96197914 -82 25 C-82 24.34 -82 23.68 -82 23 C-82.639375 22.7525 -83.27875 22.505 -83.9375 22.25 C-87.99988351 20.59188428 -91.99724906 18.7964416 -96 17 C-96 16.34 -96 15.68 -96 15 C-96.8353125 14.90912109 -96.8353125 14.90912109 -97.6875 14.81640625 C-102.79793457 14.25529435 -107.89999553 13.64909148 -113 13 C-113.33 11.35 -113.66 9.7 -114 8 C-84.05312861 -17.13085406 -33.34280245 -23.78501881 0 0 Z " fill="#07A756" transform="translate(371,30)"/>
<path d="M0 0 C11.64869002 0.05481736 22.14984159 5.17083052 32 11 C32 11.66 32 12.32 32 13 C32.99 13 33.98 13 35 13 C36.71295502 14.61905549 38.37338917 16.29421785 40 18 C41.77193509 19.50274731 43.56405556 20.98199881 45.375 22.4375 C46.32761719 23.2109375 47.28023437 23.984375 48.26171875 24.78125 C49.16535156 25.5134375 50.06898438 26.245625 51 27 C53.40063611 28.9502586 55.71179819 30.9151939 58 33 C58 33.66 58 34.32 58 35 C58.55429688 35.24234375 59.10859375 35.4846875 59.6796875 35.734375 C62.49051305 37.26755257 64.69415711 39.16642038 67.125 41.25 C76.83856707 49.29727698 89.72016726 58 102.875 58 C103.57625 58 104.2775 58 105 58 C105.66 58.66 106.32 59.32 107 60 C106.625 62.125 106.625 62.125 106 64 C104.68 64.33 103.36 64.66 102 65 C102 65.66 102 66.32 102 67 C76.24056784 81.35168363 50.63211038 90.60761588 20.92675781 82.42919922 C-6.46952463 74.42612765 -6.46952463 74.42612765 -10.12109375 68.0390625 C-9.93982079 64.98665968 -8.19219012 64.06478078 -6 62 C2.57822982 47.85053274 6.85664128 31.29815769 3.3203125 14.8359375 C2.81411229 13.20163395 2.26720474 11.57856795 1.65625 9.98046875 C1 8 1 8 1 4 C0.34 4 -0.32 4 -1 4 C-0.67 2.68 -0.34 1.36 0 0 Z " fill="#09A757" transform="translate(137,387)"/>
<path d="M0 0 C2.98943905 0.32029704 3.93419831 0.9280294 6 3.1875 C6.99 4.5796875 6.99 4.5796875 8 6 C8.99 7.36125 8.99 7.36125 10 8.75 C16 18.5 16 18.5 16 23 C16.66 23.33 17.32 23.66 18 24 C18.6328125 26.06640625 18.6328125 26.06640625 19.125 28.5625 C19.29257812 29.38878906 19.46015625 30.21507812 19.6328125 31.06640625 C19.75398438 31.70449219 19.87515625 32.34257812 20 33 C20.66 33 21.32 33 22 33 C22.103125 33.99 22.20625 34.98 22.3125 36 C22.90808706 40.28297163 24.38595027 43.99996371 26 48 C25.67 48.33 25.34 48.66 25 49 C25.33 49.99 25.66 50.98 26 52 C27.52003644 73.33034746 21.19477688 91.5544555 13 111 C12.34 111 11.68 111 11 111 C10.505 112.98 10.505 112.98 10 115 C2.15589942 113.25686654 2.15589942 113.25686654 -0.296875 110.58984375 C-2.54628078 108.49005441 -4.84374351 107.59903434 -7.6875 106.4375 C-9.17830078 105.81681641 -9.17830078 105.81681641 -10.69921875 105.18359375 C-17.8303257 102.62652226 -23.91912061 101.69720605 -31.4375 101.8125 C-32.62956055 101.8134668 -32.62956055 101.8134668 -33.84570312 101.81445312 C-41.98399367 101.8141654 -41.98399367 101.8141654 -50 103 C-50.495 103.99 -50.495 103.99 -51 105 C-53.64860427 105.59355614 -56.29197322 105.74209269 -59 106 C-60.02401491 94.73583594 -54.04079206 82.03464295 -47.59765625 73.04296875 C-46.12212277 71.29767014 -44.58324185 69.64830659 -43 68 C-41.43171164 66.29697896 -39.86957154 64.5882826 -38.3125 62.875 C-37.56613281 62.06804687 -36.81976563 61.26109375 -36.05078125 60.4296875 C-34.05232484 58.06199247 -32.56363051 55.66607787 -31 53 C-28.4375 50.1875 -28.4375 50.1875 -26 48 C-25.34 48 -24.68 48 -24 48 C-23.731875 47.21625 -23.46375 46.4325 -23.1875 45.625 C-22 43 -22 43 -19 41 C-18.67 40.01 -18.34 39.02 -18 38 C-17.0409375 37.071875 -17.0409375 37.071875 -16.0625 36.125 C-13.82659257 33.8213378 -13.13822946 31.9593966 -12 29 C-11.53851563 28.54882812 -11.07703125 28.09765625 -10.6015625 27.6328125 C-5.55632252 22.48912882 -3.5479229 15.1905535 -2.40234375 8.2734375 C-1.89450697 5.40391319 -1.00594997 2.73043563 0 0 Z " fill="#15488D" transform="translate(453,251)"/>
<path d="M0 0 C7.4 1.4 7.4 1.4 10 4 C10.33 4.66 10.66 5.32 11 6 C12.97984481 6.72433347 14.98583438 7.37743972 17 8 C18.27289847 8.49471894 19.5436467 8.99499638 20.8125 9.5 C34.71695631 14.61995868 49.17468011 14.64266209 63.1796875 9.875 C66 9 66 9 70 9 C69.65004144 15.67334778 68.99651553 21.00696894 66 27 C64.4739967 30.39729548 64.4739967 30.39729548 64 34 C63.443125 34.53625 62.88625 35.0725 62.3125 35.625 C59.71642107 38.29124323 58.06991549 41.06988705 56.24609375 44.29296875 C55 46 55 46 52 47 C50.93283296 48.79932579 50.93283296 48.79932579 50 51 C48.21505533 54.66905294 46.09424131 56.86463268 43 59.4375 C39.60022262 62.28731339 37.63966469 64.79835923 36 69 C35.34 69 34.68 69 34 69 C33.67 69.66 33.34 70.32 33 71 C31.26134287 73.2538148 29.49188067 75.45812047 27.578125 77.56640625 C23.56894545 82.01990209 20.7323633 86.68061187 18 92 C17.401875 93.11375 16.80375 94.2275 16.1875 95.375 C14.79391607 97.97536935 14.79391607 97.97536935 15 101 C14.34 101 13.68 101 13 101 C12.95101562 101.67546875 12.90203125 102.3509375 12.8515625 103.046875 C12.77679688 103.93890625 12.70203125 104.8309375 12.625 105.75 C12.55539063 106.63171875 12.48578125 107.5134375 12.4140625 108.421875 C12.00149945 110.99066382 11.28839043 112.75841015 10 115 C9.01 115 8.02 115 7 115 C5.72900391 113.5222168 5.72900391 113.5222168 4.4765625 111.44921875 C4.01515869 110.69342529 3.55375488 109.93763184 3.07836914 109.15893555 C2.59875732 108.34336182 2.11914551 107.52778809 1.625 106.6875 C1.13185303 105.86096924 0.63870605 105.03443848 0.13061523 104.18286133 C-13.28441779 81.41761933 -18.24054861 57.44869622 -12.1875 31.51953125 C-9.2295715 20.6121699 -5.16526702 10.0546444 0 0 Z " fill="#14478D" transform="translate(37,122)"/>
<path d="M0 0 C3.36179774 1.44077046 5.59156268 3.24750021 8 6 C8 6.66 8 7.32 8 8 C8.99 8.33 9.98 8.66 11 9 C15.00616198 12.66277667 18.49372104 16.79626875 22.0859375 20.859375 C25.20048263 24.34258057 28.41022938 27.50852449 32 30.5 C39.21875 36.515625 39.21875 36.515625 41.25 40.375 C40.87604718 44.3015046 38.54007446 46.00143018 35.76171875 48.64453125 C34 50 34 50 32 50 C31.34 51.32 30.68 52.64 30 54 C29.34 54 28.68 54 28 54 C27.773125 54.5775 27.54625 55.155 27.3125 55.75 C25.65273655 58.59530878 23.57933333 59.93653334 21 62 C19.18045807 63.97776296 17.43700011 66.01095462 15.6875 68.05078125 C12.4957576 71.73753925 9.00003862 75.05906576 5.375 78.3125 C4.80523437 78.82425781 4.23546875 79.33601563 3.6484375 79.86328125 C2 81 2 81 -1 81 C-2 76 -2 76 -1 63 C-14.53 63 -28.06 63 -42 63 C-42 75.87 -42 88.74 -42 102 C-46 102 -46 102 -49 101 C-50.3671875 99.609375 -50.3671875 99.609375 -51.875 97.75 C-58.04012652 90.46513896 -65.01337566 83.89327364 -71.8359375 77.23046875 C-74 75 -74 75 -75 73 C-71.0730884 74.59582881 -68.62965059 77.15647896 -65.68359375 80.15625 C-65.18585953 80.65918579 -64.68812531 81.16212158 -64.17530823 81.68029785 C-62.59119166 83.28216845 -61.01394256 84.89057948 -59.4375 86.5 C-57.85663279 88.10853419 -56.27431037 89.71556612 -54.6889801 91.31970215 C-53.25216035 92.77433342 -51.82016992 94.23373016 -50.38842773 95.69335938 C-48.02820448 98.11048019 -48.02820448 98.11048019 -45 100 C-44.67 87.46 -44.34 74.92 -44 62 C-29.15 62 -14.3 62 1 62 C1.495 69.92 1.495 69.92 2 78 C3.08007324 76.90945312 4.16014648 75.81890625 5.27294922 74.6953125 C9.26726146 70.66490182 13.26810595 66.64103062 17.27099609 62.61914062 C19.00521963 60.87483628 20.73764706 59.12874434 22.46826172 57.38085938 C24.95074145 54.87422271 27.43953065 52.37400718 29.9296875 49.875 C30.70682098 49.08754395 31.48395447 48.30008789 32.28463745 47.48876953 C33.00523346 46.76802246 33.72582947 46.04727539 34.46826172 45.3046875 C35.10335663 44.66515137 35.73845154 44.02561523 36.39279175 43.36669922 C38 42 38 42 40 42 C39.33395752 41.33395752 38.66791504 40.66791504 37.98168945 39.98168945 C25.98779297 27.98779297 13.99389648 15.99389648 2 4 C1.67 9.28 1.34 14.56 1 20 C-1.96589111 20.00616333 -1.96589111 20.00616333 -4.99169922 20.01245117 C-11.55770205 20.03192324 -18.12325037 20.07434921 -24.68902397 20.13209057 C-28.66613028 20.16624012 -32.64285739 20.19145161 -36.62011719 20.19555664 C-40.46546281 20.19986573 -44.30995478 20.22854112 -48.15503311 20.27343178 C-49.61482884 20.28632418 -51.07472716 20.29074402 -52.5345726 20.28615379 C-62.1439286 20.26299715 -70.65367384 20.89780237 -77.93112183 27.84294128 C-84.1932145 34.70646722 -84.33821816 40.36927836 -84.3125 49.4375 C-84.32861328 50.56994141 -84.34472656 51.70238281 -84.36132812 52.86914062 C-84.36197266 53.96291016 -84.36261719 55.05667969 -84.36328125 56.18359375 C-84.36626221 57.17931396 -84.36924316 58.17503418 -84.37231445 59.20092773 C-83.94291505 62.42916655 -82.83723179 64.34298209 -81 67 C-84 66 -84 66 -85.6640625 64.046875 C-87.55102413 59.7432783 -87.43687684 55.89763843 -87.375 51.25 C-87.38660156 50.3940625 -87.39820313 49.538125 -87.41015625 48.65625 C-87.37564445 41.06365336 -86.11283814 33.56982016 -80.875 27.75 C-80.35679687 27.14671875 -79.83859375 26.5434375 -79.3046875 25.921875 C-70.93626783 18.94346402 -63.24859481 18.2593538 -52.68359375 18.29296875 C-51.21669989 18.27983162 -49.74982404 18.26452126 -48.28297424 18.24714661 C-44.45085995 18.20751809 -40.61922124 18.19712066 -36.78692627 18.19311523 C-32.8649676 18.18374158 -28.94328352 18.14630198 -25.02148438 18.11132812 C-17.3476535 18.04697845 -9.67410673 18.01355333 -2 18 C-2.02320313 16.95199219 -2.04640625 15.90398437 -2.0703125 14.82421875 C-2.08907303 13.44531963 -2.10727293 12.0664128 -2.125 10.6875 C-2.14175781 9.99720703 -2.15851563 9.30691406 -2.17578125 8.59570312 C-2.21217794 4.82864604 -2.14378864 3.21568296 0 0 Z " fill="#D0F3E2" transform="translate(272,120)"/>
<path d="M0 0 C1.32 0.33 2.64 0.66 4 1 C4 1.66 4 2.32 4 3 C5.32 3.66 6.64 4.32 8 5 C8 5.66 8 6.32 8 7 C8.99 7.33 9.98 7.66 11 8 C11 8.66 11 9.32 11 10 C11.66 10 12.32 10 13 10 C13 10.66 13 11.32 13 12 C13.88401489 12.39396973 13.88401489 12.39396973 14.78588867 12.79589844 C17.10724251 14.05832176 18.59055869 15.37550599 20.42578125 17.265625 C21.05806641 17.90886719 21.69035156 18.55210937 22.34179688 19.21484375 C23.31729492 20.22224609 23.31729492 20.22224609 24.3125 21.25 C28.6179923 25.67279633 32.91207912 29.90738962 37.73901367 33.76464844 C38.15513916 34.17231445 38.57126465 34.57998047 39 35 C39 35.66 39 36.32 39 37 C39.639375 37.226875 40.27875 37.45375 40.9375 37.6875 C43 39 43 39 43.62768555 41.28198242 C44.22599794 45.64985904 43.9934276 49.918106 43.8125 54.3125 C43.79380859 55.22451172 43.77511719 56.13652344 43.75585938 57.07617188 C43.51143113 63.05823161 42.57963398 68.06889504 39 73 C38.01 73.66 37.02 74.32 36 75 C37.01024019 72.35783336 38.04646043 69.9199299 39.46875 67.46875 C43.12553187 59.18501965 44.03297945 49.61597984 41 41 C34.63097418 31.59988995 25.62017896 24.27095884 17 17 C15.48382148 15.68853757 13.9703251 14.37396006 12.4609375 13.0546875 C11.84250977 12.51424805 11.22408203 11.97380859 10.58691406 11.41699219 C8.68994681 9.72314635 6.88901088 7.95653282 5.125 6.125 C2.81308065 3.72480848 2.81308065 3.72480848 0 2 C0 14.87 0 27.74 0 41 C-14.85 41 -29.7 41 -45 41 C-45.33 36.71 -45.66 32.42 -46 28 C-46.9178125 28.95261719 -47.835625 29.90523438 -48.78125 30.88671875 C-50.0204192 32.15405089 -51.26002607 33.4209552 -52.5 34.6875 C-53.10070312 35.31333984 -53.70140625 35.93917969 -54.3203125 36.58398438 C-57.96970083 40.29160762 -61.53892658 43.04972459 -66.00976562 45.68432617 C-69.62421196 48.0737093 -72.51199399 51.1994594 -75.5 54.3125 C-76.13164062 54.95767578 -76.76328125 55.60285156 -77.4140625 56.26757812 C-78.9499022 57.83832328 -80.4782113 59.41565886 -82 61 C-80.5735422 64.2586636 -78.83295838 66.4024854 -76.3046875 68.890625 C-75.58925781 69.59960938 -74.87382812 70.30859375 -74.13671875 71.0390625 C-73.39035156 71.76867187 -72.64398438 72.49828125 -71.875 73.25 C-71.12089844 73.99507813 -70.36679688 74.74015625 -69.58984375 75.5078125 C-67.73099228 77.3431342 -65.86762995 79.1736191 -64 81 C-68.52931087 81 -70.18325642 78.27139209 -73.30664062 75.20117188 C-74.09232422 74.41291016 -74.87800781 73.62464844 -75.6875 72.8125 C-76.48478516 72.04357422 -77.28207031 71.27464844 -78.10351562 70.48242188 C-78.85697266 69.73154297 -79.61042969 68.98066406 -80.38671875 68.20703125 C-81.42638794 67.17799683 -81.42638794 67.17799683 -82.48706055 66.12817383 C-84.33660618 63.52651346 -84.41846645 62.12789806 -84 59 C-82.6015625 57.33203125 -82.6015625 57.33203125 -80.625 55.8125 C-76.10347442 52.16298292 -72.12879106 48.12448731 -68.1015625 43.94140625 C-66 42 -66 42 -64 42 C-63.67 41.01 -63.34 40.02 -63 39 C-62.34 39 -61.68 39 -61 39 C-61 38.34 -61 37.68 -61 37 C-60.34 37 -59.68 37 -59 37 C-58.731875 36.360625 -58.46375 35.72125 -58.1875 35.0625 C-57 33 -57 33 -54 32 C-52.79117904 29.99983534 -52.79117904 29.99983534 -52 28 C-51.34 28 -50.68 28 -50 28 C-49.95875 27.401875 -49.9175 26.80375 -49.875 26.1875 C-49 24 -49 24 -45.9375 22.25 C-44.968125 21.8375 -43.99875 21.425 -43 21 C-38.73125051 25.26874949 -41.35450035 32.97349405 -41 39 C-21.2 39.495 -21.2 39.495 -1 40 C-1.40777975 27.95796838 -1.40777975 27.95796838 -1.83837891 15.91674805 C-1.88526744 14.40676374 -1.9313815 12.89675511 -1.9765625 11.38671875 C-2.00838623 10.60317017 -2.04020996 9.81962158 -2.07299805 9.0123291 C-2.17997399 5.10267317 -2.22549848 3.33824772 0 0 Z " fill="#D9F7E9" transform="translate(272,265)"/>
<path d="M0 0 C20.26273776 18.22494289 23.35397368 67.6400852 24.86376953 93.21679688 C25.20333576 100.15417147 25.2117915 107.05924247 25 114 C24.95552734 115.89105469 24.95552734 115.89105469 24.91015625 117.8203125 C24.39575884 130.04038761 22.20895576 141.99053712 20 154 C19.85771973 154.78938965 19.71543945 155.5787793 19.56884766 156.39208984 C17.40422468 168.23701432 17.40422468 168.23701432 14 171 C12.68 170.34 11.36 169.68 10 169 C10.14308594 168.03513672 10.14308594 168.03513672 10.2890625 167.05078125 C13.13982058 143.8137881 1.52933743 121.84641241 -10.93823242 103.05102539 C-12.01505601 101.40274896 -13.01563145 99.70510492 -14 98 C-13.505 97.01 -13.505 97.01 -13 96 C1.47061756 116.9052979 12.15621074 138.34902083 15 164 C15.80380576 160.18996068 16.59059154 156.37657596 17.375 152.5625 C17.59671875 151.51255859 17.8184375 150.46261719 18.046875 149.38085938 C21.1876158 134.00046692 22.41000081 118.86475308 22.375 103.1875 C22.37512085 102.34670898 22.3752417 101.50591797 22.37536621 100.63964844 C22.33472701 80.62626154 21.32405624 58.86406083 14 40 C13.34 39.67 12.68 39.34 12 39 C11.48230557 36.95615437 11.06283658 34.88721322 10.6875 32.8125 C8.63582878 22.63703972 5.15708269 13.04572329 0.69921875 3.671875 C0 2 0 2 0 0 Z " fill="#CCF1DF" transform="translate(471,132)"/>
<path d="M0 0 C1.50195312 1.25756836 1.50195312 1.25756836 3 3 C2.9763795 5.93189451 2.80871794 8.66090486 2.5 11.5625 C1.95626211 17.9412569 1.89963047 23.02583535 4.40625 29.0546875 C5.12202546 31.39979394 4.78024923 32.71058449 4 35 C3.35105763 32.93847611 2.7059736 30.87573742 2.0625 28.8125 C1.70285156 27.66394531 1.34320313 26.51539063 0.97265625 25.33203125 C-0.39268691 20.65477136 -1.12750428 16.56282115 -1.0625 11.6875 C-1.05347656 10.80449219 -1.04445313 9.92148438 -1.03515625 9.01171875 C-1.02355469 8.34785156 -1.01195312 7.68398437 -1 7 C-1.66 7 -2.32 7 -3 7 C-2.938125 7.639375 -2.87625 8.27875 -2.8125 8.9375 C-2.98495043 11.75419039 -3.44423388 13.43682196 -4.40625 16.03515625 C-14.37351733 45.40041797 -12.97288429 88.98497943 -4.69238281 118.4765625 C-3.98789886 121.04410346 -3.39972547 123.61695128 -2.8359375 126.21875 C0.71590835 142.26608101 6.75905528 157.26620122 14.38598633 171.80175781 C15.86953738 174.63693787 17.10877614 177.33404303 18.1015625 180.3828125 C18.70850764 183.1462394 18.70850764 183.1462394 21 184 C20.01 184 19.02 184 18 184 C2.49273103 163.73307422 -4.14656735 134.37450615 -9 110 C-9.18079102 109.1121582 -9.36158203 108.22431641 -9.54785156 107.30957031 C-12.04086945 94.5173652 -12.27869221 81.73787689 -12.3125 68.75 C-12.31814972 67.55691223 -12.31814972 67.55691223 -12.32391357 66.33972168 C-12.361092 50.85510621 -10.89555987 35.67557927 -8.125 20.4375 C-7.90263672 19.09848633 -7.90263672 19.09848633 -7.67578125 17.73242188 C-6.61210608 11.81302634 -5.06264192 6.22782011 -2 1 C-1.34 0.67 -0.68 0.34 0 0 Z M0 3 C0 4.65 0 6.3 0 8 C0.33 8 0.66 8 1 8 C1 6.35 1 4.7 1 3 C0.67 3 0.34 3 0 3 Z " fill="#CEF3E1" transform="translate(17,184)"/>
<path d="M0 0 C1.37381836 0.00193359 1.37381836 0.00193359 2.77539062 0.00390625 C12.13497981 0.12484854 18.52571146 2.19673033 25.5625 8.375 C34.25234545 17.52220574 32.70718519 31.07049725 32.44140625 42.8203125 C32.40598976 44.69685013 32.40598976 44.69685013 32.36985779 46.61129761 C32.30668901 49.90253093 32.23843014 53.19360451 32.16760254 56.48468018 C32.09631625 59.85688928 32.03186295 63.22922866 31.96679688 66.6015625 C31.83825836 73.19284818 31.70236407 79.78394531 31.5625 86.375 C37.5025 86.375 43.4425 86.375 49.5625 86.375 C48.44435466 91.96572671 48.44435466 91.96572671 44.8125 94.8125 C42.23711208 96.92669256 40.21405459 98.79313449 38.0625 101.375 C35.4302376 104.53371488 32.59515662 107.05402642 29.48046875 109.71875 C26.0287767 112.69943723 22.98043201 115.87348159 20.0625 119.375 C13.88032946 126.79360465 13.88032946 126.79360465 10.4375 128.3125 C8.5625 128.375 8.5625 128.375 5.5625 126.375 C6.0575 124.89 6.0575 124.89 6.5625 123.375 C7.8825 124.035 9.2025 124.695 10.5625 125.375 C22.7725 113.165 34.9825 100.955 47.5625 88.375 C41.9525 88.045 36.3425 87.715 30.5625 87.375 C30.55839111 85.39773926 30.55428223 83.42047852 30.55004883 81.38330078 C30.53057676 74.81729795 30.48815079 68.25174963 30.43040943 61.68597603 C30.39625988 57.70886972 30.37104839 53.73214261 30.36694336 49.75488281 C30.36263427 45.90953719 30.33395888 42.06504522 30.28906822 38.21996689 C30.27617582 36.76017116 30.27175598 35.30027284 30.27634621 33.8404274 C30.29747366 25.07312668 29.70724559 17.78151776 24.5625 10.375 C22.46967054 8.12451366 22.46967054 8.12451366 20.125 6.875 C19.40441406 6.4315625 18.68382812 5.988125 17.94140625 5.53125 C12.06490739 2.67502067 6.93693788 1.98502456 0.5 1.9375 C-0.68432617 1.88819336 -0.68432617 1.88819336 -1.89257812 1.83789062 C-6.10804392 1.79902212 -7.86475089 1.91377366 -11.24609375 4.63671875 C-12.33083984 5.99216797 -12.33083984 5.99216797 -13.4375 7.375 C-14.76705839 8.7952101 -16.10013505 10.21213864 -17.4375 11.625 C-18.076875 12.31078125 -18.71625 12.9965625 -19.375 13.703125 C-21.74324262 15.62283682 -23.44316464 16.02150208 -26.4375 16.375 C-26.4375 14.375 -26.4375 14.375 -25.0625 12.75 C-23.4375 11.375 -23.4375 11.375 -21.4375 11.375 C-21.4375 10.715 -21.4375 10.055 -21.4375 9.375 C-14.75069832 1.90151577 -9.77655931 -0.26034285 0 0 Z " fill="#D2F6E6" transform="translate(323.4375,178.625)"/>
<path d="M0 0 C3.5218253 1.95656961 6.34442785 3.95100975 9 7 C9 7.66 9 8.32 9 9 C9.99 9.33 10.98 9.66 12 10 C12 10.66 12 11.32 12 12 C12.99 12.33 13.98 12.66 15 13 C15 13.66 15 14.32 15 15 C16.32 15.66 17.64 16.32 19 17 C19 17.66 19 18.32 19 19 C19.8353125 19.309375 19.8353125 19.309375 20.6875 19.625 C22.94696811 20.96846753 23.9998656 22.05157702 25.625 24.0625 C27.67119397 27.00824713 27.67119397 27.00824713 30 28 C30 28.66 30 29.32 30 30 C30.99 30 31.98 30 33 30 C33.625 31.875 33.625 31.875 34 34 C33.34 34.66 32.68 35.32 32 36 C26.72 35.67 21.44 35.34 16 35 C16.495 55.295 16.495 55.295 17 76 C36.305 76.495 36.305 76.495 56 77 C55 82 55 82 52.5625 84.3125 C50 86 50 86 48 86 C48 86.66 48 87.32 48 88 C46.35546875 89.5859375 46.35546875 89.5859375 44.1875 91.375 C41.93749143 93.23566282 40.09649715 94.86872703 38.36328125 97.2265625 C37.68845703 98.10441406 37.68845703 98.10441406 37 99 C36.34 99 35.68 99 35 99 C36.38596867 95.86594332 37.99071156 93.78165818 40.44140625 91.3984375 C41.44010742 90.41617188 41.44010742 90.41617188 42.45898438 89.4140625 C43.15314453 88.74117188 43.84730469 88.06828125 44.5625 87.375 C45.94098537 86.03088131 47.31739401 84.68462847 48.69140625 83.3359375 C49.30185791 82.74345215 49.91230957 82.1509668 50.54125977 81.54052734 C52.09810782 80.04565952 52.09810782 80.04565952 53 78 C40.13 78 27.26 78 14 78 C14 63.48 14 48.96 14 34 C22.415 33.505 22.415 33.505 31 33 C29.18113281 31.18113281 27.36226562 29.36226562 25.48828125 27.48828125 C7.9543457 9.9543457 7.9543457 9.9543457 6.45620728 8.44839478 C5.02694413 7.02679957 3.57064424 5.63255357 2.11401367 4.23901367 C0 2 0 2 0 0 Z " fill="#E2F8F2" transform="translate(174,188)"/>
<path d="M0 0 C1.44921875 1.82421875 1.44921875 1.82421875 2 4 C0.8046875 6.48046875 0.8046875 6.48046875 -1.125 9.1875 C-9.40673545 21.45553248 -11.34709981 32.43224328 -11.125 47.125 C-11.11597656 48.27226563 -11.10695313 49.41953125 -11.09765625 50.6015625 C-11.07432538 53.40126748 -11.04159232 56.20051695 -11 59 C-15.94729686 51.57905471 -15.03496663 40.25341908 -13.61767578 31.68994141 C-11.66338466 22.76189617 -8.38193391 15.01354032 -3.453125 7.3203125 C-1.86455409 4.98619985 -1.86455409 4.98619985 -1 2 C-4.98926887 -0.58264805 -9.12569206 -2.35387995 -13.5625 -4 C-14.20251953 -4.2475 -14.84253906 -4.495 -15.50195312 -4.75 C-17.65227056 -5.55558233 -19.81806682 -6.28454811 -22 -7 C-22.79293457 -7.28012939 -23.58586914 -7.56025879 -24.40283203 -7.84887695 C-34.93005606 -11.0698081 -45.86473333 -10.32622695 -56.75 -10.1875 C-58.8150944 -10.17242514 -60.88019945 -10.15874169 -62.9453125 -10.14648438 C-67.96380834 -10.11370274 -72.98178451 -10.06207511 -78 -10 C-56.76832613 -20.90979689 -18.96655503 -13.5297526 0 0 Z " fill="#C3EED9" transform="translate(371,30)"/>
<path d="M0 0 C14.52 0 29.04 0 44 0 C44 5.94 44 11.88 44 18 C44.66 18.33 45.32 18.66 46 19 C45.01 19 44.02 19 43 19 C42 14 42 14 43 1 C29.47 1 15.94 1 2 1 C2 13.87 2 26.74 2 40 C-2 40 -2 40 -5 39 C-6.3671875 37.609375 -6.3671875 37.609375 -7.875 35.75 C-14.04012652 28.46513896 -21.01337566 21.89327364 -27.8359375 15.23046875 C-30 13 -30 13 -31 11 C-27.0730884 12.59582881 -24.62965059 15.15647896 -21.68359375 18.15625 C-21.18585953 18.65918579 -20.68812531 19.16212158 -20.17530823 19.68029785 C-18.59119166 21.28216845 -17.01394256 22.89057948 -15.4375 24.5 C-13.85663279 26.10853419 -12.27431037 27.71556612 -10.6889801 29.31970215 C-9.25216035 30.77433342 -7.82016992 32.23373016 -6.38842773 33.69335938 C-4.02820448 36.11048019 -4.02820448 36.11048019 -1 38 C-0.67 25.46 -0.34 12.92 0 0 Z " fill="#DFF9ED" transform="translate(228,182)"/>
<path d="M0 0 C1.50195312 1.25756836 1.50195312 1.25756836 3 3 C2.9763795 5.93189451 2.80871794 8.66090486 2.5 11.5625 C1.95626211 17.9412569 1.89963047 23.02583535 4.40625 29.0546875 C5.12202546 31.39979394 4.78024923 32.71058449 4 35 C3.35105763 32.93847611 2.7059736 30.87573742 2.0625 28.8125 C1.70285156 27.66394531 1.34320313 26.51539063 0.97265625 25.33203125 C-0.39268691 20.65477136 -1.12750428 16.56282115 -1.0625 11.6875 C-1.05347656 10.80449219 -1.04445313 9.92148438 -1.03515625 9.01171875 C-1.02355469 8.34785156 -1.01195312 7.68398437 -1 7 C-1.66 7 -2.32 7 -3 7 C-2.938125 7.639375 -2.87625 8.27875 -2.8125 8.9375 C-2.98490961 11.75352357 -3.43903561 13.39432118 -4.41015625 15.984375 C-6.24216028 21.36449916 -6.99823695 26.67828611 -7.625 32.3125 C-7.74979736 33.40030762 -7.87459473 34.48811523 -8.00317383 35.60888672 C-9.64419545 51.34396466 -9.75848164 67.19322375 -10 83 C-10.33 83 -10.66 83 -11 83 C-12.61167747 47.2054716 -12.61167747 47.2054716 -10 32 C-9.78851318 30.65276855 -9.78851318 30.65276855 -9.57275391 29.27832031 C-9.10955556 26.32783056 -8.62261779 23.38237031 -8.125 20.4375 C-7.97587158 19.53233643 -7.82674316 18.62717285 -7.6730957 17.69458008 C-6.6027952 11.78960584 -5.05610054 6.2166542 -2 1 C-1.34 0.67 -0.68 0.34 0 0 Z M0 3 C0 4.65 0 6.3 0 8 C0.33 8 0.66 8 1 8 C1 6.35 1 4.7 1 3 C0.67 3 0.34 3 0 3 Z " fill="#C7EDDB" transform="translate(17,184)"/>
<path d="M0 0 C0.33 0 0.66 0 1 0 C1 5.94 1 11.88 1 18 C0.67 18 0.34 18 0 18 C-0.33 13.71 -0.66 9.42 -1 5 C-1.9178125 5.95261719 -2.835625 6.90523438 -3.78125 7.88671875 C-5.0204192 9.15405089 -6.26002607 10.4209552 -7.5 11.6875 C-8.10070312 12.31333984 -8.70140625 12.93917969 -9.3203125 13.58398438 C-12.96970083 17.29160762 -16.53892658 20.04972459 -21.00976562 22.68432617 C-24.62421196 25.0737093 -27.51199399 28.1994594 -30.5 31.3125 C-31.44746094 32.28026367 -31.44746094 32.28026367 -32.4140625 33.26757812 C-33.9499022 34.83832328 -35.4782113 36.41565886 -37 38 C-35.5735422 41.2586636 -33.83295838 43.4024854 -31.3046875 45.890625 C-30.58925781 46.59960938 -29.87382812 47.30859375 -29.13671875 48.0390625 C-28.39035156 48.76867187 -27.64398438 49.49828125 -26.875 50.25 C-26.12089844 50.99507813 -25.36679688 51.74015625 -24.58984375 52.5078125 C-22.73099228 54.3431342 -20.86762995 56.1736191 -19 58 C-23.52931087 58 -25.18325642 55.27139209 -28.30664062 52.20117188 C-29.09232422 51.41291016 -29.87800781 50.62464844 -30.6875 49.8125 C-31.48478516 49.04357422 -32.28207031 48.27464844 -33.10351562 47.48242188 C-34.23370117 46.35610352 -34.23370117 46.35610352 -35.38671875 45.20703125 C-36.07983154 44.5210083 -36.77294434 43.83498535 -37.48706055 43.12817383 C-39.33660618 40.52651346 -39.41846645 39.12789806 -39 36 C-37.6015625 34.33203125 -37.6015625 34.33203125 -35.625 32.8125 C-31.10347442 29.16298292 -27.12879106 25.12448731 -23.1015625 20.94140625 C-21 19 -21 19 -19 19 C-18.67 18.01 -18.34 17.02 -18 16 C-17.34 16 -16.68 16 -16 16 C-16 15.34 -16 14.68 -16 14 C-15.34 14 -14.68 14 -14 14 C-13.731875 13.360625 -13.46375 12.72125 -13.1875 12.0625 C-12 10 -12 10 -9 9 C-8.566875 8.071875 -8.566875 8.071875 -8.125 7.125 C-6.63401456 4.30869416 -4.75206622 3.51363642 -2 2 C-1.34 1.34 -0.68 0.68 0 0 Z " fill="#90D6B2" transform="translate(227,288)"/>
<path d="M0 0 C4.44176436 -0.10833572 8.63138322 0.15988139 13 1 C13.99 1.99 13.99 1.99 15 3 C14.625 5.125 14.625 5.125 14 7 C12.68 7.33 11.36 7.66 10 8 C10 8.66 10 9.32 10 10 C-15.45853126 24.18403884 -39.56359052 32.74497643 -69 26 C-71.0084828 25.35934309 -73.01113557 24.6991872 -75 24 C-71.11988275 22.70662758 -68.19599142 23.62874531 -64.3125 24.4375 C-38.80026847 29.19956676 -14.31681539 22.90099233 7.0625 8.5 C8.691875 7.345 10.32125 6.19 12 5 C8.04 3.68 4.08 2.36 0 1 C0 0.67 0 0.34 0 0 Z " fill="#D2F3E3" transform="translate(229,444)"/>
<path d="M0 0 C11.64869002 0.05481736 22.14984159 5.17083052 32 11 C32 11.66 32 12.32 32 13 C28.32685934 11.60926377 24.95353853 9.92684154 21.5 8.0625 C15.19799694 4.85663028 8.92525052 3.27335252 2 2 C2.28875 2.74378906 2.5775 3.48757813 2.875 4.25390625 C8.45490056 20.6642388 8.18861749 39.14223089 1 55 C-0.72026515 58.07474761 -2.51849332 60.98386117 -4.546875 63.86328125 C-6.16019559 66.02724489 -6.16019559 66.02724489 -7 69 C-5.02 69.99 -3.04 70.98 -1 72 C-4 73 -4 73 -6.625 71.8125 C-9 70 -9 70 -10.0625 68.0625 C-10 66 -10 66 -8.21875 64.2734375 C1.85378401 53.9526368 4.4278482 37.91332506 4.36499023 24.11523438 C4.22300161 19.07952429 3.4514657 14.67628759 1.65625 9.98046875 C1 8 1 8 1 4 C0.34 4 -0.32 4 -1 4 C-0.67 2.68 -0.34 1.36 0 0 Z " fill="#D1F5E4" transform="translate(137,387)"/>
<path d="M0 0 C0.33 0 0.66 0 1 0 C1 13.2 1 26.4 1 40 C-13.52 40 -28.04 40 -43 40 C-43.33 34.39 -43.66 28.78 -44 23 C-45.65 24.32 -47.3 25.64 -49 27 C-48.875 25.1875 -48.875 25.1875 -48 23 C-44.9375 21.25 -44.9375 21.25 -42 20 C-37.73125051 24.26874949 -40.35450035 31.97349405 -40 38 C-20.2 38.495 -20.2 38.495 0 39 C-0.36839047 26.91314979 -0.36839047 26.91314979 -0.74829102 14.82666016 C-0.7922477 13.3141397 -0.83581307 11.8016078 -0.87890625 10.2890625 C-0.90561401 9.50039795 -0.93232178 8.7117334 -0.95983887 7.89916992 C-1.1140718 2.2281436 -1.1140718 2.2281436 0 0 Z " fill="#DCFAED" transform="translate(271,266)"/>
<path d="M0 0 C0 4.26882709 -1.94989406 5.80581965 -4.75390625 8.875 C-16.34383117 19.84007679 -30.51444134 23.35209482 -46.0390625 23.21484375 C-55.54632075 22.69916406 -63.28363372 20.59814808 -71 15 C-70.34 14.67 -69.68 14.34 -69 14 C-66.50390625 14.9609375 -66.50390625 14.9609375 -63.5625 16.375 C-52.33937744 21.72503712 -37.1170997 22.49539326 -25.140625 18.71875 C-15.0966564 14.82018841 -6.55255835 8.53013226 0 0 Z " fill="#C4EDD9" transform="translate(121,446)"/>
<path d="M0 0 C1.48693359 0.13535156 1.48693359 0.13535156 3.00390625 0.2734375 C5.4375 0.625 5.4375 0.625 6.4375 1.625 C8.10367115 1.66563832 9.77138095 1.667721 11.4375 1.625 C7.6875 3.625 7.6875 3.625 5.4375 3.625 C5.7675 4.615 6.0975 5.605 6.4375 6.625 C8.53469872 7.64781518 8.53469872 7.64781518 11 8.3125 C11.82628906 8.56386719 12.65257812 8.81523437 13.50390625 9.07421875 C14.14199219 9.25597656 14.78007812 9.43773437 15.4375 9.625 C7.24949718 12.05927111 -0.66612305 8.95077905 -8.0625 5.4375 C-8.5575 5.169375 -9.0525 4.90125 -9.5625 4.625 C-7.23314744 -0.5328521 -5.47941328 -0.52865265 0 0 Z " fill="#6C89AF" transform="translate(201.5625,474.375)"/>
<path d="M0 0 C7.24271225 -0.12706513 7.24271225 -0.12706513 10.8984375 0.48632812 C16.25805558 1.26697051 21.65205794 1.23436132 27.05859375 1.31640625 C28.20288345 1.33718735 29.34717316 1.35796844 30.52613831 1.37937927 C34.16320076 1.44449793 37.80033231 1.5035839 41.4375 1.5625 C43.91081429 1.60572108 46.38412173 1.6493365 48.85742188 1.69335938 C54.90487595 1.80014049 60.95239799 1.9019753 67 2 C67 2.33 67 2.66 67 3 C44.04559345 5.66502063 22.87852671 3.84742699 0 1 C0 0.67 0 0.34 0 0 Z " fill="#AABED4" transform="translate(217,485)"/>
<path d="M0 0 C4 0 4 0 6.25 1.875 C8 4 8 4 8 6 C8.99 6.33 9.98 6.66 11 7 C15.00616198 10.66277667 18.49372104 14.79626875 22.0859375 18.859375 C26.09148959 23.33905366 30.3818337 27.18499305 35 31 C36.01680311 31.98290968 37.02738219 32.97334787 38 34 C37.67 34.99 37.34 35.98 37 37 C25.45 25.45 13.9 13.9 2 2 C1.67 7.28 1.34 12.56 1 18 C0.67 18 0.34 18 0 18 C0 12.06 0 6.12 0 0 Z " fill="#C0EDD7" transform="translate(272,122)"/>
<path d="M0 0 C0.33 0.66 0.66 1.32 1 2 C0.71125 2.78375 0.4225 3.5675 0.125 4.375 C-1.48089418 9.5495479 -1.72942744 14.60742594 -2 20 C-2.06574219 21.15628906 -2.13148437 22.31257813 -2.19921875 23.50390625 C-2.50446068 33.09271311 -0.50156225 40.08313626 3.8125 48.5625 C4.204375 49.366875 4.59625 50.17125 5 51 C4.67 51.66 4.34 52.32 4 53 C-0.34633744 47.59644534 -2.3387987 42.70092687 -4 36 C-4.28037109 35.08154297 -4.28037109 35.08154297 -4.56640625 34.14453125 C-6.86517788 22.77493103 -4.9553686 10.36122525 0 0 Z " fill="#BFEAD6" transform="translate(30,392)"/>
<path d="M0 0 C2.82800791 1.29719493 4.9647032 2.71024882 7.25 4.8125 C10.9277213 8.02953009 14.76031608 10.58283959 19 13 C20.10794922 13.65162109 20.10794922 13.65162109 21.23828125 14.31640625 C28.16938028 18.11659966 35.25751832 19.62777342 43 21 C42.649375 20.0925 42.29875 19.185 41.9375 18.25 C41.03531221 15.12241564 40.86618493 13.94791919 42 11 C42.50615298 12.26839526 43.00469099 13.53983102 43.5 14.8125 C43.7784375 15.52019531 44.056875 16.22789063 44.34375 16.95703125 C45 19 45 19 45 22 C35.99730575 24.36913007 26.84215666 19.89999603 18.9609375 15.7421875 C12.05321871 11.67775138 5.31664038 7.04997009 0 1 C0 0.67 0 0.34 0 0 Z " fill="#D2F3E4" transform="translate(319,78)"/>
<path d="M0 0 C1.31484375 -0.02634521 1.31484375 -0.02634521 2.65625 -0.05322266 C3.49027344 -0.05241699 4.32429688 -0.05161133 5.18359375 -0.05078125 C5.9305249 -0.05376221 6.67745605 -0.05674316 7.44702148 -0.05981445 C10.11292386 0.40937206 11.52967427 1.57291175 13.5625 3.3125 C-13.3951474 4.50638403 -13.3951474 4.50638403 -25.4375 4.3125 C-17.58557465 0.0653222 -8.7320357 0.09580111 0 0 Z " fill="#74CA9E" transform="translate(318.4375,15.6875)"/>
<path d="M0 0 C0.66 0.33 1.32 0.66 2 1 C-6.85504447 8.33703684 -18.84290892 12.96389952 -30.58203125 12.328125 C-46.97731781 10.10323959 -46.97731781 10.10323959 -53 6 C-49.82597357 4.41298679 -47.44704647 5.92865767 -44.125 6.9375 C-28.97584307 11.21740421 -16.09776394 8.66018485 -2.3984375 1.109375 C-1.60695313 0.74328125 -0.81546875 0.3771875 0 0 Z " fill="#EEFDFA" transform="translate(451,115)"/>
<path d="M0 0 C13.86 0 27.72 0 42 0 C41 5 41 5 38.5625 7.3125 C36 9 36 9 34 9 C34 9.66 34 10.32 34 11 C32.35546875 12.5859375 32.35546875 12.5859375 30.1875 14.375 C27.93749143 16.23566282 26.09649715 17.86872703 24.36328125 20.2265625 C23.91339844 20.81179688 23.46351563 21.39703125 23 22 C22.34 22 21.68 22 21 22 C22.38596867 18.86594332 23.99071156 16.78165818 26.44140625 14.3984375 C27.10720703 13.74359375 27.77300781 13.08875 28.45898438 12.4140625 C29.15314453 11.74117188 29.84730469 11.06828125 30.5625 10.375 C31.94098537 9.03088131 33.31739401 7.68462847 34.69140625 6.3359375 C35.30185791 5.74345215 35.91230957 5.1509668 36.54125977 4.54052734 C38.09810782 3.04565952 38.09810782 3.04565952 39 1 C26.13 1 13.26 1 0 1 C0 0.67 0 0.34 0 0 Z " fill="#C2EFD9" transform="translate(188,265)"/>
<path d="M0 0 C2.94586829 4.41880243 3.0985616 6.67767339 3 12 C-1.47603309 11.49327927 -5.83644924 10.8407085 -10.25 9.9375 C-21.34387053 7.91073519 -31.97113539 9.31252345 -43 11 C-38.52118781 6.52118781 -32.0993506 6.74765404 -26.11791992 6.72290039 C-25.17150635 6.73184326 -24.22509277 6.74078613 -23.25 6.75 C-21.78880737 6.75471313 -21.78880737 6.75471313 -20.2980957 6.75952148 C-14.292438 6.82833265 -8.58878648 7.23516005 -2.73046875 8.66015625 C-1.87388672 8.82837891 -1.87388672 8.82837891 -1 9 C0.20561184 8.01732141 0.20561184 8.01732141 0.09765625 6.15234375 C0.08605469 5.42144531 0.07445312 4.69054687 0.0625 3.9375 C0.041875 2.638125 0.02125 1.33875 0 0 Z " fill="#C3EED9" transform="translate(102,344)"/>
<path d="M0 0 C0.99 0.33 1.98 0.66 3 1 C-10.38458843 10.45844249 -23.98764662 11.02590518 -40 10 C-43.82843446 9.32600744 -47.3841777 8.42261861 -51 7 C-47.82539317 5.97523978 -45.88944193 6.09139099 -42.6875 6.9375 C-27.88098577 10.12592342 -14.52273016 7.17704958 -1 1 C-0.67 0.67 -0.34 0.34 0 0 Z " fill="#C5EFDA" transform="translate(451,127)"/>
<path d="M0 0 C2 3 2 3 2 6 C2.66 6 3.32 6 4 6 C4.33 12.93 4.66 19.86 5 27 C4.34 27 3.68 27 3 27 C2.96261719 27.56847656 2.92523438 28.13695313 2.88671875 28.72265625 C2.43021378 34.08435193 1.36510918 38.1669508 -1 43 C-2 40 -2 40 -0.578125 36.58984375 C1.66560645 31.0073479 1.36405419 25.49688203 1.25 19.5625 C1.24484375 18.46228516 1.2396875 17.36207031 1.234375 16.22851562 C1.6509986 11.26192991 1.6509986 11.26192991 0 7 C-0.04092937 4.66702567 -0.04241723 2.33294775 0 0 Z " fill="#6081AD" transform="translate(128,53)"/>
<path d="M0 0 C0 3 0 3 -1.35546875 4.61328125 C-2.26232422 5.45439453 -2.26232422 5.45439453 -3.1875 6.3125 C-5.51700543 8.53847185 -7.71328933 10.75238233 -9.75 13.25 C-14.25 18.75 -14.25 18.75 -18 20 C-21.66280378 20.23008533 -25.33071753 20.1851599 -29 20.1875 C-30.010625 20.19974609 -31.02125 20.21199219 -32.0625 20.22460938 C-33.5165625 20.22750977 -33.5165625 20.22750977 -35 20.23046875 C-35.886875 20.23457764 -36.77375 20.23868652 -37.6875 20.24291992 C-40 20 -40 20 -43 18 C-42.30140869 18.05873291 -41.60281738 18.11746582 -40.88305664 18.17797852 C-25.23972576 19.44076381 -25.23972576 19.44076381 -11.48828125 13.1484375 C-7.26489409 9.09713497 -3.48940847 4.69533972 0 0 Z " fill="#CCF0DF" transform="translate(206,289)"/>
<path d="M0 0 C0 3.46948517 -0.09119638 5.87481456 -2.3125 8.625 C-4 10 -4 10 -6.125 10.9375 C-6.74375 11.288125 -7.3625 11.63875 -8 12 C-8.13792969 12.62003906 -8.27585937 13.24007813 -8.41796875 13.87890625 C-9.13713018 16.49974289 -10.09750508 17.30216748 -12.1875 19 C-12.81140625 19.50789063 -13.4353125 20.01578125 -14.078125 20.5390625 C-16.64716144 22.49194792 -19.27484037 24.27184999 -22 26 C-20.61806472 22.94483917 -18.99523692 20.67040839 -16.75 18.1875 C-13.83249008 14.941085 -11.01854082 11.63371585 -8.26171875 8.25 C-7 7 -7 7 -5 7 C-4.731875 6.21625 -4.46375 5.4325 -4.1875 4.625 C-3 2 -3 2 0 0 Z " fill="#839EC1" transform="translate(434,292)"/>
<path d="M0 0 C0 4.19882611 -2.20993157 6.12274194 -5 9 C-6.99490535 10.82195992 -9.0291724 12.587458 -11.08203125 14.34375 C-14.5337233 17.32443723 -17.58206799 20.49848159 -20.5 24 C-26.68217054 31.41860465 -26.68217054 31.41860465 -30.125 32.9375 C-32 33 -32 33 -35 31 C-34.505 29.515 -34.505 29.515 -34 28 C-32.68 28.66 -31.36 29.32 -30 30 C-20.1 20.1 -10.2 10.2 0 0 Z " fill="#C8F0DD" transform="translate(364,274)"/>
<path d="M0 0 C3.5218253 1.95656961 6.34442785 3.95100975 9 7 C9 7.66 9 8.32 9 9 C9.99 9.33 10.98 9.66 12 10 C12 10.66 12 11.32 12 12 C12.99 12.33 13.98 12.66 15 13 C15 13.66 15 14.32 15 15 C16.32 15.66 17.64 16.32 19 17 C19 17.66 19 18.32 19 19 C19.8353125 19.309375 19.8353125 19.309375 20.6875 19.625 C22.94696811 20.96846753 23.9998656 22.05157702 25.625 24.0625 C27.67119397 27.00824713 27.67119397 27.00824713 30 28 C29.67 28.99 29.34 29.98 29 31 C21 23 13 15 5 7 C4.05664795 6.09789795 3.1132959 5.1957959 2.14135742 4.26635742 C0 2 0 2 0 0 Z " fill="#C9EFDD" transform="translate(174,188)"/>
<path d="M0 0 C17.50179632 -0.84122511 29.21446428 -0.07546201 44 10 C44.99 10.66 45.98 11.32 47 12 C46.67 12.66 46.34 13.32 46 14 C45.51273438 13.62488281 45.02546875 13.24976563 44.5234375 12.86328125 C35.98332684 6.6988741 24.9304804 1.83377897 14.234375 1.90234375 C13.34492187 1.90556641 12.45546875 1.90878906 11.5390625 1.91210938 C10.15847656 1.92467773 10.15847656 1.92467773 8.75 1.9375 C7.34621094 1.94426758 7.34621094 1.94426758 5.9140625 1.95117188 C3.60930959 1.96293082 1.30468773 1.97936574 -1 2 C-0.67 1.34 -0.34 0.68 0 0 Z " fill="#CFF3E2" transform="translate(67,362)"/>
<path d="M0 0 C0.53367187 0.18175781 1.06734375 0.36351562 1.6171875 0.55078125 C2.36226563 0.80214844 3.10734375 1.05351563 3.875 1.3125 C4.70386719 1.59351563 5.53273438 1.87453125 6.38671875 2.1640625 C8.02039324 2.68664298 9.66851546 3.16796871 11.33203125 3.5859375 C16.74140377 4.96743562 21.46036241 7.13563408 26.3125 9.875 C27.19264771 10.36649536 27.19264771 10.36649536 28.09057617 10.86791992 C32.02215816 13.16513121 34.9325229 15.69656312 38 19 C35.83125748 18.49396008 34.00032373 18.00016187 32 17 C32 16.34 32 15.68 32 15 C31.360625 14.7525 30.72125 14.505 30.0625 14.25 C26.00011649 12.59188428 22.00275094 10.7964416 18 9 C18 8.34 18 7.68 18 7 C17.443125 6.93941406 16.88625 6.87882812 16.3125 6.81640625 C11.20206543 6.25529435 6.10000447 5.64909148 1 5 C0.67 3.35 0.34 1.7 0 0 Z " fill="#CDF0DF" transform="translate(257,38)"/>
<path d="M0 0 C11.64869002 0.05481736 22.14984159 5.17083052 32 11 C32 11.66 32 12.32 32 13 C28.32685934 11.60926377 24.95353853 9.92684154 21.5 8.0625 C15.19799694 4.85663028 8.92525052 3.27335252 2 2 C2.66 4.97 3.32 7.94 4 11 C3.01 10.01 2.02 9.02 1 8 C1 6.68 1 5.36 1 4 C0.34 4 -0.32 4 -1 4 C-0.67 2.68 -0.34 1.36 0 0 Z " fill="#C9EFDC" transform="translate(137,387)"/>
<path d="M0 0 C4.95 0 9.9 0 15 0 C15 0.66 15 1.32 15 2 C17.64 2.33 20.28 2.66 23 3 C19.52334905 4.06888524 16.32862522 4.11475767 12.703125 4.09765625 C11.49785156 4.09443359 10.29257812 4.09121094 9.05078125 4.08789062 C7.79652344 4.07951172 6.54226563 4.07113281 5.25 4.0625 C3.98027344 4.05798828 2.71054687 4.05347656 1.40234375 4.04882812 C-1.73181836 4.03704556 -4.86588541 4.02059416 -8 4 C-6.140625 2.48046875 -6.140625 2.48046875 -4 1 C-1.75 1.3125 -1.75 1.3125 0 2 C0 1.34 0 0.68 0 0 Z " fill="#8BA5C5" transform="translate(414,361)"/>
<path d="M0 0 C0.66 0 1.32 0 2 0 C2.06702797 3.82059439 2.10384988 7.33435981 1.51367188 11.1171875 C0.96193886 15.28770169 0.7770203 19.35850883 0.68359375 23.55859375 C0.66281265 24.34774673 0.64203156 25.13689972 0.62062073 25.94996643 C0.55576695 28.44573109 0.49654195 30.94159178 0.4375 33.4375 C0.39425358 35.13998348 0.35063744 36.84245762 0.30664062 38.54492188 C0.20015237 42.69651873 0.09870853 46.84821118 0 51 C-0.33 51 -0.66 51 -1 51 C-2.60666308 15.31683845 -2.60666308 15.31683845 0 0 Z " fill="#8CD5AF" transform="translate(7,216)"/>
<path d="M0 0 C3.3 0.66 6.6 1.32 10 2 C10.33 2.99 10.66 3.98 11 5 C10.34 5 9.68 5 9 5 C8.67 5.66 8.34 6.32 8 7 C8 6.34 8 5.68 8 5 C7.443125 5.16628906 6.88625 5.33257813 6.3125 5.50390625 C3.77397627 6.0484882 1.59262772 6.02623577 -1 5.9375 C-7.1544108 5.86275007 -12.97467168 6.8222744 -19 8 C-16.72002437 5.72002437 -15.73947716 5.54789543 -12.6484375 4.9296875 C-11.79765625 4.75566406 -10.946875 4.58164063 -10.0703125 4.40234375 C-9.18085938 4.22832031 -8.29140625 4.05429688 -7.375 3.875 C-6.4778125 3.69324219 -5.580625 3.51148438 -4.65625 3.32421875 C-2.4387734 2.8760054 -0.22011786 2.4349076 2 2 C1.34 1.34 0.68 0.68 0 0 Z " fill="#B9CADD" transform="translate(298,6)"/>
<path d="M0 0 C3.01078617 2.54420235 4.16602683 5.31691935 5.625 8.9375 C6.05039062 9.97777344 6.47578125 11.01804687 6.9140625 12.08984375 C9.12408001 18.01237268 9.18326133 23.28502551 9.1875 29.5625 C9.19974609 30.52091797 9.21199219 31.47933594 9.22460938 32.46679688 C9.22750977 33.84641602 9.22750977 33.84641602 9.23046875 35.25390625 C9.23457764 36.09252197 9.23868652 36.9311377 9.24291992 37.79516602 C9 40 9 40 7 43 C7.06960938 41.22109375 7.06960938 41.22109375 7.140625 39.40625 C7.50365239 25.90976054 6.2238644 14.21589431 0 2 C0 1.34 0 0.68 0 0 Z " fill="#C7EFDB" transform="translate(466,43)"/>
<path d="M0 0 C0.33 0 0.66 0 1 0 C1 12.87 1 25.74 1 39 C-5 35 -5 35 -6 33 C-4.35 33.33 -2.7 33.66 -1 34 C-0.67 22.78 -0.34 11.56 0 0 Z " fill="#41AE78" transform="translate(227,182)"/>
<path d="M0 0 C2.125 0.375 2.125 0.375 4 1 C2.2841907 2.99226194 0.55403348 4.96793517 -1.1875 6.9375 C-1.91163086 7.78344727 -1.91163086 7.78344727 -2.65039062 8.64648438 C-4.93973376 11.21239245 -6.53656112 12.85774386 -9.86328125 13.87890625 C-10.56839844 13.91886719 -11.27351563 13.95882812 -12 14 C-12 12 -12 12 -10.625 10.375 C-9 9 -9 9 -7 9 C-7 8.34 -7 7.68 -7 7 C-5.37660195 5.29115995 -3.70680947 3.62553283 -2 2 C-1.34 1.34 -0.68 0.68 0 0 Z " fill="#72C89D" transform="translate(309,181)"/>
<path d="M0 0 C0.73863281 0.00515625 1.47726563 0.0103125 2.23828125 0.015625 C6.825189 0.08034328 11.22424165 0.50767985 15.75 1.25 C12.49246076 3.18709638 10.09390072 3.48715445 6.328125 3.4453125 C4.79091797 3.43564453 4.79091797 3.43564453 3.22265625 3.42578125 C2.15917969 3.40902344 1.09570312 3.39226563 0 3.375 C-1.61841797 3.36146484 -1.61841797 3.36146484 -3.26953125 3.34765625 C-5.92991278 3.32411305 -8.58984336 3.29122799 -11.25 3.25 C-7.99328559 -0.55997864 -4.7267721 -0.12927924 0 0 Z " fill="#7592B6" transform="translate(74.25,18.75)"/>
<path d="M0 0 C1.32 0.33 2.64 0.66 4 1 C4 1.66 4 2.32 4 3 C3.01 3 2.02 3 1 3 C0.92523438 3.79921875 0.85046875 4.5984375 0.7734375 5.421875 C-0.25046236 13.97445029 -2.72863612 20.54526115 -7 28 C-7.66 28 -8.32 28 -9 28 C-7.85460271 24.37290859 -6.53677387 20.87710652 -5.0625 17.375 C-2.76374739 11.72712842 -1.3464141 5.93646218 0 0 Z " fill="#91A9C7" transform="translate(453,251)"/>
<path d="M0 0 C1.50195312 1.25756836 1.50195312 1.25756836 3 3 C2.9763795 5.93189451 2.80871794 8.66090486 2.5 11.5625 C1.95626211 17.9412569 1.89963047 23.02583535 4.40625 29.0546875 C5.12202546 31.39979394 4.78024923 32.71058449 4 35 C0.4488835 26.16976836 -0.38986987 18.69713011 -0.02734375 9.27416992 C0.04470884 7.18400162 0.02936495 5.09120367 0 3 C-0.66 2.34 -1.32 1.68 -2 1 C-1.34 0.67 -0.68 0.34 0 0 Z " fill="#EFFCF6" transform="translate(17,184)"/>
<path d="M0 0 C1.48693359 0.13535156 1.48693359 0.13535156 3.00390625 0.2734375 C5.4375 0.625 5.4375 0.625 6.4375 1.625 C8.10367115 1.66563832 9.77138095 1.667721 11.4375 1.625 C7.82788317 3.85047805 4.56006579 4.01236219 0.375 4.25 C-0.85347656 4.32476562 -2.08195313 4.39953125 -3.34765625 4.4765625 C-5.41765629 4.57213966 -7.49029461 4.625 -9.5625 4.625 C-7.23314744 -0.5328521 -5.47941328 -0.52865265 0 0 Z " fill="#E8EFF4" transform="translate(201.5625,474.375)"/>
<path d="M0 0 C-0.33 1.32 -0.66 2.64 -1 4 C-1.59039062 4.0825 -2.18078125 4.165 -2.7890625 4.25 C-5.65542581 5.22233526 -6.55715771 6.61034816 -8.375 9 C-10.84849192 11.99169649 -11.59836894 12.88316187 -15.4375 14 C-16.283125 14 -17.12875 14 -18 14 C-15.04836911 9.98606717 -11.87247831 7.14877693 -7.875 4.1875 C-6.82054687 3.39730469 -5.76609375 2.60710937 -4.6796875 1.79296875 C-2 0 -2 0 0 0 Z " fill="#5A7DA9" transform="translate(321,408)"/>
<path d="M0 0 C0.99 0.66 1.98 1.32 3 2 C2.72482232 6.67802059 0.66806114 8.74638753 -2.52734375 11.86328125 C-4 13 -4 13 -6 13 C-6.66 14.32 -7.32 15.64 -8 17 C-8.66 17 -9.32 17 -10 17 C-10.33 17.99 -10.66 18.98 -11 20 C-11.99 19.67 -12.98 19.34 -14 19 C-11.71643754 16.65861457 -9.42186626 14.32833018 -7.125 12 C-6.47402344 11.33226562 -5.82304687 10.66453125 -5.15234375 9.9765625 C-4.52714844 9.34492188 -3.90195312 8.71328125 -3.2578125 8.0625 C-2.6817627 7.47597656 -2.10571289 6.88945312 -1.51220703 6.28515625 C0 5 0 5 2 5 C1.34 3.35 0.68 1.7 0 0 Z " fill="#CDF1E1" transform="translate(310,157)"/>
<path d="M0 0 C2.19575147 2.02911308 3.59429605 3.84706154 4.8671875 6.546875 C5.19589844 7.2275 5.52460938 7.908125 5.86328125 8.609375 C6.53029754 10.02066815 7.19697216 11.43212283 7.86328125 12.84375 C10.1690556 17.61679262 12.81394753 21.75933086 16 26 C15.67 26.66 15.34 27.32 15 28 C0 8.90909091 0 8.90909091 0 0 Z " fill="#C1EED8" transform="translate(400,148)"/>
<path d="M0 0 C0.66 0.33 1.32 0.66 2 1 C-7.67998161 7.51339188 -15.28452335 9.48209021 -27 10 C-23.86960215 8.26089008 -20.92841727 7.44518244 -17.4375 6.6875 C-11.96053887 5.39050184 -7.19547894 3.42032851 -2.1796875 0.890625 C-1.46039063 0.59671875 -0.74109375 0.3028125 0 0 Z " fill="#C3EDD8" transform="translate(223,460)"/>
<path d="M0 0 C4.44586086 4.26734637 8.38313245 8.88224123 12.3125 13.625 C13.28026367 14.7696875 13.28026367 14.7696875 14.26757812 15.9375 C14.87666016 16.67226562 15.48574219 17.40703125 16.11328125 18.1640625 C16.66798096 18.82873535 17.22268066 19.4934082 17.79418945 20.17822266 C19 22 19 22 19 25 C0 4.98713235 0 4.98713235 0 0 Z " fill="#C8F1DC" transform="translate(416,176)"/>
<path d="M0 0 C-0.08754551 1.75091019 -0.19573373 3.50079551 -0.3125 5.25 C-0.37050781 6.22453125 -0.42851563 7.1990625 -0.48828125 8.203125 C-1 11 -1 11 -4 15 C-4.33 11.04 -4.66 7.08 -5 3 C-6.65 3 -8.3 3 -10 3 C-4 0 -4 0 0 0 Z " fill="#89A3C2" transform="translate(107,131)"/>
<path d="M0 0 C0.66 0.33 1.32 0.66 2 1 C-6.25807367 7.8424039 -13.36624028 10.37977713 -24 10 C-24 9.67 -24 9.34 -24 9 C-22.90945313 8.77957031 -22.90945313 8.77957031 -21.796875 8.5546875 C-14.70204819 6.97199537 -8.76480386 4.61839583 -2.3984375 1.109375 C-1.60695313 0.74328125 -0.81546875 0.3771875 0 0 Z " fill="#C3EED9" transform="translate(451,115)"/>
<path d="M0 0 C2.4375 0.375 2.4375 0.375 5 1 C5.33 1.66 5.66 2.32 6 3 C3.525 2.01 3.525 2.01 1 1 C0.34 4.3 -0.32 7.6 -1 11 C-1.66 11 -2.32 11 -3 11 C-3.433125 12.4540625 -3.433125 12.4540625 -3.875 13.9375 C-5 17 -5 17 -7 18 C-5.06375702 11.79522136 -2.74390859 5.89174281 0 0 Z " fill="#8DA7C6" transform="translate(37,122)"/>
<path d="M0 0 C1.32 0.33 2.64 0.66 4 1 C4 1.66 4 2.32 4 3 C5.32 3.66 6.64 4.32 8 5 C8 5.66 8 6.32 8 7 C8.99 7.33 9.98 7.66 11 8 C11 8.66 11 9.32 11 10 C11.66 10 12.32 10 13 10 C13 10.66 13 11.32 13 12 C13.99 12.33 14.98 12.66 16 13 C15.67 13.99 15.34 14.98 15 16 C14.08476562 15.07316406 13.16953125 14.14632813 12.2265625 13.19140625 C11.0261739 11.98163961 9.82564583 10.77201135 8.625 9.5625 C8.02171875 8.95083984 7.4184375 8.33917969 6.796875 7.70898438 C6.21679688 7.12568359 5.63671875 6.54238281 5.0390625 5.94140625 C4.50490723 5.40201416 3.97075195 4.86262207 3.42041016 4.30688477 C2.01347612 2.89153023 2.01347612 2.89153023 0 2 C0 1.34 0 0.68 0 0 Z " fill="#DBF4E6" transform="translate(272,265)"/>
<path d="M0 0 C7.59 0 15.18 0 23 0 C23 0.33 23 0.66 23 1 C17.42932723 2.59162079 12.78898419 3.20674944 7 3 C7 2.34 7 1.68 7 1 C4.69 1 2.38 1 0 1 C0 0.67 0 0.34 0 0 Z " fill="#B9CBDB" transform="translate(67,124)"/>
<path d="M0 0 C4 0 4 0 6.25 1.875 C8 4 8 4 8 6 C8.99 6.33 9.98 6.66 11 7 C10.01 7.33 9.02 7.66 8 8 C6.02 6.02 4.04 4.04 2 2 C1.67 7.28 1.34 12.56 1 18 C0.67 18 0.34 18 0 18 C0 12.06 0 6.12 0 0 Z " fill="#A6E0C3" transform="translate(272,122)"/>
<path d="M0 0 C1.2065625 0.0309375 1.2065625 0.0309375 2.4375 0.0625 C3.30396667 1.49261973 4.15531829 2.93190619 5 4.375 C5.47566406 5.17550781 5.95132812 5.97601563 6.44140625 6.80078125 C7.4375 9.0625 7.4375 9.0625 6.4375 12.0625 C4.4375 8.72916667 2.4375 5.39583333 0.4375 2.0625 C-1.81412472 3.10789719 -3.70839161 4.17406417 -5.6875 5.6875 C-7.5625 7.0625 -7.5625 7.0625 -9.5625 7.0625 C-9.5625 6.4025 -9.5625 5.7425 -9.5625 5.0625 C-7.59527992 3.68126037 -5.59381672 2.34761874 -3.5625 1.0625 C-2.5625 0.0625 -2.5625 0.0625 0 0 Z " fill="#D7F6E6" transform="translate(463.5625,119.9375)"/>
<path d="M0 0 C2 3 2 3 2 6 C2.66 6 3.32 6 4 6 C4.33 12.93 4.66 19.86 5 27 C4.34 27 3.68 27 3 27 C2.95101562 26.05898437 2.90203125 25.11796875 2.8515625 24.1484375 C2.77679688 22.90320313 2.70203125 21.65796875 2.625 20.375 C2.55539063 19.14523438 2.48578125 17.91546875 2.4140625 16.6484375 C2.01720131 13.15156628 1.15178305 10.30673197 0 7 C-0.07522969 4.66787973 -0.09325876 2.3314689 0 0 Z " fill="#BFD0E3" transform="translate(128,53)"/>
<path d="M0 0 C2.31 0 4.62 0 7 0 C1.38930449 4.57167782 -2.94917972 5.23901086 -10 5 C-9.67 4.01 -9.34 3.02 -9 2 C-2.25 1 -2.25 1 0 1 C0 0.67 0 0.34 0 0 Z " fill="#BFCEDF" transform="translate(223,471)"/>
<path d="M0 0 C0 3.75586417 -1.14246188 5.76650772 -3 9 C-3.99 9.66 -4.98 10.32 -6 11 C-7.20450304 13.55183404 -7.20450304 13.55183404 -8 16 C-8.66 16 -9.32 16 -10 16 C-7.91418612 9.44458495 -6.04180145 5.78324753 -1 1 C-0.67 0.67 -0.34 0.34 0 0 Z " fill="#95ACC9" transform="translate(411,318)"/>
<path d="M0 0 C0.99 0.33 1.98 0.66 3 1 C-0.31562468 5.15877322 -3.19120885 8.53062076 -8 11 C-8.99 11.66 -9.98 12.32 -11 13 C-9.56177525 9.58139248 -7.78464276 7.72092162 -4.9375 5.375 C-2.02124288 3.04514448 -2.02124288 3.04514448 0 0 Z " fill="#5076A7" transform="translate(423,305)"/>
<path d="M0 0 C0.99 0.33 1.98 0.66 3 1 C-8.99269481 9.47483766 -8.99269481 9.47483766 -14.375 8.625 C-14.91125 8.41875 -15.4475 8.2125 -16 8 C-15.01 8 -14.02 8 -13 8 C-13 7.34 -13 6.68 -13 6 C-12.14535156 5.65066406 -11.29070312 5.30132812 -10.41015625 4.94140625 C-9.30542969 4.48636719 -8.20070313 4.03132812 -7.0625 3.5625 C-5.96035156 3.11003906 -4.85820312 2.65757812 -3.72265625 2.19140625 C-1.13431084 1.25575392 -1.13431084 1.25575392 0 0 Z " fill="#A2DEC1" transform="translate(451,127)"/>
<path d="M0 0 C0.66 0.33 1.32 0.66 2 1 C-2.28565853 6.09057916 -6.19579645 10.66258296 -12 14 C-9.48489058 8.05519592 -5.09632389 3.7858406 0 0 Z " fill="#7D99BB" transform="translate(47,29)"/>
<path d="M0 0 C2.53489266 2.53489266 5.05798305 5.06233177 7.5 7.6875 C9.96992246 9.97217828 11.82133822 11.00099201 15 12 C15 12.99 15 13.98 15 15 C10.82064223 13.62170116 8.33475973 11.74081436 5.25 8.625 C4.47140625 7.85414063 3.6928125 7.08328125 2.890625 6.2890625 C1.05740014 4.06949687 0.38462357 2.80775207 0 0 Z " fill="#B5E7D0" transform="translate(35,445)"/>
<path d="M0 0 C0.99 0.33 1.98 0.66 3 1 C3 1.66 3 2.32 3 3 C2.01 3 1.02 3 0 3 C0.34224609 4.12148437 0.34224609 4.12148437 0.69140625 5.265625 C0.97886719 6.25046875 1.26632812 7.2353125 1.5625 8.25 C1.85253906 9.22453125 2.14257812 10.1990625 2.44140625 11.203125 C2.99249836 13.96243932 2.93789609 15.3912824 2 18 C-0.26681464 13.05422261 -2.10229203 8.38624782 -3 3 C-1.625 1 -1.625 1 0 0 Z " fill="#E0F8ED" transform="translate(397,130)"/>
<path d="M0 0 C0.66 0.33 1.32 0.66 2 1 C2.33 6.94 2.66 12.88 3 19 C2.34 19 1.68 19 1 19 C1 13.39 1 7.78 1 2 C-1.31 3.65 -3.62 5.3 -6 7 C-5 3 -5 3 -2.5625 1.1875 C-1.716875 0.795625 -0.87125 0.40375 0 0 Z " fill="#F2FBF6" transform="translate(228,286)"/>
<path d="M0 0 C0.66 0.99 1.32 1.98 2 3 C1.38510791 5.3475086 0.7093091 7.67927393 0 10 C-0.27566968 12.63966722 -0.48427667 15.28721063 -0.625 17.9375 C-0.66367187 18.62134766 -0.70234375 19.30519531 -0.7421875 20.00976562 C-0.83522412 21.67279513 -0.91863787 23.33635847 -1 25 C-1.33 25 -1.66 25 -2 25 C-2.05437005 22.14557247 -2.09384974 19.29219924 -2.125 16.4375 C-2.14175781 15.63763672 -2.15851563 14.83777344 -2.17578125 14.01367188 C-2.21723982 8.93499665 -1.64056075 4.81188094 0 0 Z " fill="#B8CCE0" transform="translate(359,397)"/>
<path d="M0 0 C0.66 0.33 1.32 0.66 2 1 C-2.7515528 7.20341615 -2.7515528 7.20341615 -7 8 C-8.7074998 9.28062485 -10.38263741 10.6072711 -12 12 C-10.47940093 8.11985064 -8.13921469 6.26093438 -4.875 3.75 C-3.96492188 3.04359375 -3.05484375 2.3371875 -2.1171875 1.609375 C-1.41851562 1.07828125 -0.71984375 0.5471875 0 0 Z " fill="#849EC0" transform="translate(393,370)"/>
<path d="M0 0 C0.99 0.33 1.98 0.66 3 1 C2.34773438 1.51949219 1.69546875 2.03898437 1.0234375 2.57421875 C-3.69160088 6.33651338 -8.38592135 10.11446009 -13 14 C-11.43162794 10.15035948 -9.01898195 7.81314228 -6 5 C-5.48695312 4.51660156 -4.97390625 4.03320312 -4.4453125 3.53515625 C-2.875 2.125 -2.875 2.125 0 0 Z " fill="#CBF2DD" transform="translate(50,369)"/>
<path d="M0 0 C4.33199676 0.59254669 7.43569062 2.16586006 11.1875 4.375 C12.23292969 4.98085938 13.27835937 5.58671875 14.35546875 6.2109375 C17 8 17 8 19 11 C16.83125748 10.49396008 15.00032373 10.00016187 13 9 C13 8.34 13 7.68 13 7 C12.34 6.7525 11.68 6.505 11 6.25 C7.23639093 4.68182955 3.6288576 2.85494954 0 1 C0 0.67 0 0.34 0 0 Z " fill="#D9F7E9" transform="translate(276,46)"/>
<path d="M0 0 C0.99 0.33 1.98 0.66 3 1 C0.03 3.97 -2.94 6.94 -6 10 C-6.99 9.67 -7.98 9.34 -9 9 C-6.03 6.03 -3.06 3.06 0 0 Z " fill="#18A45A" transform="translate(206,309)"/>
<path d="M0 0 C0.33 0 0.66 0 1 0 C1.125 5.75 1.125 5.75 0 8 C-3.26954202 7.43628586 -4.82575883 6.50037734 -7 4 C-4.50935112 3.31292445 -2.62113708 3 0 3 C0 2.01 0 1.02 0 0 Z " fill="#6080A8" transform="translate(463,358)"/>
<path d="M0 0 C5.94 0 11.88 0 18 0 C18 0.33 18 0.66 18 1 C13.38 1 8.76 1 4 1 C4.33 2.65 4.66 4.3 5 6 C3.2925002 4.71937515 1.62626404 3.38232443 0 2 C0 1.34 0 0.68 0 0 Z " fill="#34A96D" transform="translate(295,266)"/>
<path d="M0 0 C0.99 0 1.98 0 3 0 C3.625 1.875 3.625 1.875 4 4 C3.34 4.66 2.68 5.32 2 6 C-0.91952568 5.98251781 -3.72297885 5.86055367 -6.625 5.625 C-7.42679688 5.56828125 -8.22859375 5.5115625 -9.0546875 5.453125 C-11.03715498 5.31152018 -13.01869051 5.15697741 -15 5 C-15 4.67 -15 4.34 -15 4 C-7.08 3.505 -7.08 3.505 1 3 C0.67 2.01 0.34 1.02 0 0 Z " fill="#E0F9EC" transform="translate(204,218)"/>
<path d="M0 0 C2.63520872 5.13810571 4.34515943 10.23740294 5 16 C4.67 16.66 4.34 17.32 4 18 C1.20091258 14.01524016 0.55665618 11.02179241 0.3125 6.1875 C0.24675781 5.02605469 0.18101562 3.86460937 0.11328125 2.66796875 C0.07589844 1.78753906 0.03851563 0.90710938 0 0 Z " fill="#C3D3E5" transform="translate(358,422)"/>
<path d="M0 0 C0.66 0.33 1.32 0.66 2 1 C1.67 2.32 1.34 3.64 1 5 C0.01 5 -0.98 5 -2 5 C-2 5.66 -2 6.32 -2 7 C-3.32 6.67 -4.64 6.34 -6 6 C-5.34 6 -4.68 6 -4 6 C-3.67 4.35 -3.34 2.7 -3 1 C-2.01 0.67 -1.02 0.34 0 0 Z " fill="#718FB5" transform="translate(372,455)"/>
<path d="M0 0 C0 3.6987636 -0.84352062 4.35773852 -3.25 7.0625 C-4.15492187 8.10083984 -4.15492187 8.10083984 -5.078125 9.16015625 C-6.97018869 10.97146113 -8.60605599 11.9778071 -11 13 C-9.49091551 9.15869402 -7.1970513 7.51196888 -4 5 C-2.62631655 3.36643049 -1.28062485 1.7074998 0 0 Z " fill="#D3F4E4" transform="translate(121,446)"/>
<path d="M0 0 C3.99455527 0.61454696 6.74466336 2.70646737 10 5 C8.8141763 8.37503669 7.72426311 10.64722731 5 13 C5.52268466 10.23723823 6.10869587 7.6739124 7 5 C3.535 3.02 3.535 3.02 0 1 C0 0.67 0 0.34 0 0 Z " fill="#D7F5E7" transform="translate(363,27)"/>
<path d="M0 0 C0 3.96018245 -1.18721244 6.5039097 -3 10 C-5.125 10.8125 -5.125 10.8125 -7 11 C-7.33 11.66 -7.66 12.32 -8 13 C-8 10 -8 10 -6.125 8.125 C-5.42375 7.42375 -4.7225 6.7225 -4 6 C-3.30686092 4.34416775 -2.63525576 2.67889021 -2 1 C-1.34 0.67 -0.68 0.34 0 0 Z " fill="#AABFD5" transform="translate(443,279)"/>
<path d="M0 0 C-2.36253009 2.36253009 -4.31227271 3.037848 -7.4375 4.1875 C-8.40558594 4.55230469 -9.37367187 4.91710937 -10.37109375 5.29296875 C-13 6 -13 6 -16 5 C-15.43410156 4.80664062 -14.86820312 4.61328125 -14.28515625 4.4140625 C-13.55167969 4.15367188 -12.81820312 3.89328125 -12.0625 3.625 C-10.96615234 3.24214844 -10.96615234 3.24214844 -9.84765625 2.8515625 C-7.81317884 2.14728587 -7.81317884 2.14728587 -7 0 C-2.52459016 -1.26229508 -2.52459016 -1.26229508 0 0 Z " fill="#A1B8D0" transform="translate(107,118)"/>
<path d="M0 0 C4.92178161 0.43427485 7.45459675 2.69095697 11 6 C11.99 7.485 11.99 7.485 13 9 C12.67 9.99 12.34 10.98 12 12 C11.505 11.113125 11.01 10.22625 10.5 9.3125 C8.18593021 5.77432083 5.24247841 4.02906173 1.609375 1.98046875 C1.07828125 1.65691406 0.5471875 1.33335937 0 1 C0 0.67 0 0.34 0 0 Z " fill="#C0EED8" transform="translate(339,182)"/>
<path d="M0 0 C1.21994269 3.65982807 0.49026663 4.58115302 -1 8 C-1 8.66 -1 9.32 -1 10 C-2.62626404 11.38232443 -4.2925002 12.71937515 -6 14 C-4.50829734 9.0276578 -2.39542583 4.58154261 0 0 Z " fill="#C5D5E5" transform="translate(102,146)"/>
<path d="M0 0 C-0.99 0.495 -0.99 0.495 -2 1 C-2.33 1.66 -2.66 2.32 -3 3 C-6.5 3.5 -6.5 3.5 -10 4 C-10.33 4.66 -10.66 5.32 -11 6 C-11.66 5.34 -12.32 4.68 -13 4 C-11.68 3.67 -10.36 3.34 -9 3 C-9 2.34 -9 1.68 -9 1 C-5.8035914 -0.06546953 -3.34252724 -0.07427838 0 0 Z " fill="#8FA8C4" transform="translate(161,91)"/>
<path d="M0 0 C0.33 0.99 0.66 1.98 1 3 C3.64 3.33 6.28 3.66 9 4 C7 6 7 6 5.0546875 6.1953125 C3.03645833 6.13020833 1.01822917 6.06510417 -1 6 C-0.67 4.02 -0.34 2.04 0 0 Z " fill="#94A9C7" transform="translate(139,92)"/>
<path d="M0 0 C0.33 0.99 0.66 1.98 1 3 C-1.31 4.98 -3.62 6.96 -6 9 C-5.69381595 5.32579134 -5.24228216 4.21864487 -2.4375 1.6875 C-1.633125 1.130625 -0.82875 0.57375 0 0 Z " fill="#386094" transform="translate(384,379)"/>
<path d="M0 0 C0.33 0.99 0.66 1.98 1 3 C-0.98 4.98 -2.96 6.96 -5 9 C-5.99 8.67 -6.98 8.34 -8 8 C-5.36 5.36 -2.72 2.72 0 0 Z " fill="#27A665" transform="translate(152,197)"/>
<path d="M0 0 C8.415 1.98 8.415 1.98 17 4 C17 4.33 17 4.66 17 5 C15.10333474 4.91227545 13.20761007 4.80408699 11.3125 4.6875 C10.25675781 4.62949219 9.20101563 4.57148437 8.11328125 4.51171875 C4.75735089 3.96011665 2.74188745 2.97883899 0 1 C0 0.67 0 0.34 0 0 Z " fill="#D2F5E3" transform="translate(398,120)"/>
<path d="M0 0 C4.2742558 1.5830577 6.26531794 4.50568404 9 8 C8.67 8.66 8.34 9.32 8 10 C5 9 5 9 3.4375 6.125 C2.963125 5.09375 2.48875 4.0625 2 3 C1.34 2.01 0.68 1.02 0 0 Z " fill="#B1E5CB" transform="translate(114,376)"/>
<path d="M0 0 C0.66 0 1.32 0 2 0 C1.70100785 3.58790575 1.23013399 4.78166776 -1.4375 7.3125 C-4 9 -4 9 -6 9 C-4.95125002 6.37812506 -4.35068687 5.20628639 -1.875 3.75 C-1.25625 3.5025 -0.6375 3.255 0 3 C0 2.01 0 1.02 0 0 Z " fill="#E7FAF1" transform="translate(228,265)"/>
<path d="M0 0 C1.32 0.33 2.64 0.66 4 1 C4 1.66 4 2.32 4 3 C3.01 3 2.02 3 1 3 C0.34 5.97 -0.32 8.94 -1 12 C-2.24142712 7.03429151 -1.37261666 4.84452938 0 0 Z " fill="#BBCBDE" transform="translate(453,251)"/>
<path d="M0 0 C0.66 0 1.32 0 2 0 C3.60725635 3.21451269 3.05748185 6.43612536 3 10 C2.34 10 1.68 10 1 10 C0.67 6.7 0.34 3.4 0 0 Z " fill="#7ECEA7" transform="translate(482,161)"/>
<path d="M0 0 C-2.3125 2.5 -2.3125 2.5 -5 5 C-5.99 5 -6.98 5 -8 5 C-6.19780722 -0.02039417 -5.34443412 -1.60333024 0 0 Z " fill="#698AB3" transform="translate(216,51)"/>
<path d="M0 0 C0.33 0.99 0.66 1.98 1 3 C-1.31 4.98 -3.62 6.96 -6 9 C-4.86634892 4.46539569 -3.35806626 3.09975347 0 0 Z " fill="#18A25C" transform="translate(161,188)"/>
<path d="M0 0 C0.99 0.99 1.98 1.98 3 3 C2.67 3.33 2.34 3.66 2 4 C1.76518307 6.18292774 1.58636677 8.37203174 1.4375 10.5625 C1.35371094 11.76003906 1.26992188 12.95757812 1.18359375 14.19140625 C1.12300781 15.11824219 1.06242187 16.04507813 1 17 C0.67 17 0.34 17 0 17 C0 11.39 0 5.78 0 0 Z " fill="#0F9B53" transform="translate(273,123)"/>
<path d="M0 0 C0 3.9519815 -1.37176172 5.14648416 -4 8 C-4.99 8.33 -5.98 8.66 -7 9 C-5.44499019 5.18315774 -2.96404505 2.80804268 0 0 Z " fill="#23A461" transform="translate(196,319)"/>
<path d="M0 0 C0.33 0.99 0.66 1.98 1 3 C-0.62339805 4.70884005 -2.29319053 6.37446717 -4 8 C-4.66 8 -5.32 8 -6 8 C-4.55746343 4.63408134 -2.66735273 2.48952921 0 0 Z " fill="#27A768" transform="translate(282,211)"/>
<path d="M0 0 C0.66 0 1.32 0 2 0 C2.69710731 1.28650706 3.38242876 2.57940665 4.0625 3.875 C4.63677734 4.95394531 4.63677734 4.95394531 5.22265625 6.0546875 C5.47917969 6.69664062 5.73570313 7.33859375 6 8 C5.67 8.66 5.34 9.32 5 10 C4.15801693 8.90241493 3.32669329 7.79664683 2.5 6.6875 C2.0359375 6.07261719 1.571875 5.45773437 1.09375 4.82421875 C0 3 0 3 0 0 Z " fill="#C1EDD7" transform="translate(29,435)"/>
<path d="M0 0 C-0.33 0.66 -0.66 1.32 -1 2 C-1.66 2 -2.32 2 -3 2 C-3 2.66 -3 3.32 -3 4 C-4.98 4 -6.96 4 -9 4 C-6.94469992 -0.11060016 -4.15744224 -0.22472661 0 0 Z " fill="#9BB1CB" transform="translate(344,395)"/>
<path d="M0 0 C0.99 0 1.98 0 3 0 C3 0.66 3 1.32 3 2 C3.66 2 4.32 2 5 2 C5 2.66 5 3.32 5 4 C5.99 4.33 6.98 4.66 8 5 C7.67 5.99 7.34 6.98 7 8 C5.83035398 6.8572081 4.66435444 5.71068285 3.5 4.5625 C2.8503125 3.92441406 2.200625 3.28632813 1.53125 2.62890625 C0 1 0 1 0 0 Z " fill="#C1EDD8" transform="translate(280,273)"/>
<path d="M0 0 C0.66 0.66 1.32 1.32 2 2 C-0.33333333 4.33333333 -2.66666667 6.66666667 -5 9 C-5 4.61031544 -2.87194899 3.23094261 0 0 Z " fill="#D2E0EC" transform="translate(67,193)"/>
<path d="M0 0 C1.9375 0.375 1.9375 0.375 4 1 C4.33 1.66 4.66 2.32 5 3 C4.2575 3.144375 3.515 3.28875 2.75 3.4375 C0.47972261 3.90187492 -1.75759479 4.41863569 -4 5 C-2.68 3.35 -1.36 1.7 0 0 Z " fill="#2AA668" transform="translate(166,183)"/>
<path d="M0 0 C0 0.66 0 1.32 0 2 C-0.66 2 -1.32 2 -2 2 C-2.33 2.99 -2.66 3.98 -3 5 C-4.65 4.67 -6.3 4.34 -8 4 C-2.7826087 0 -2.7826087 0 0 0 Z " fill="#6D8DB3" transform="translate(245,464)"/>
<path d="M0 0 C0.66 0.33 1.32 0.66 2 1 C2 1.99 2 2.98 2 4 C0.35 4.66 -1.3 5.32 -3 6 C-3.33 5.34 -3.66 4.68 -4 4 C-2.66666667 2.66666667 -1.33333333 1.33333333 0 0 Z " fill="#7995BA" transform="translate(258,454)"/>
<path d="M0 0 C-0.33 1.32 -0.66 2.64 -1 4 C-2.98 4.33 -4.96 4.66 -7 5 C-2.25 0 -2.25 0 0 0 Z " fill="#6F8EB5" transform="translate(273,446)"/>
<path d="M0 0 C4.875 4.625 4.875 4.625 6 8 C5.01 8 4.02 8 3 8 C0 2.25 0 2.25 0 0 Z " fill="#9DDCBD" transform="translate(80,306)"/>
<path d="M0 0 C0.33 0 0.66 0 1 0 C1 2.31 1 4.62 1 7 C-3.875 4.25 -3.875 4.25 -5 2 C-2.525 2.495 -2.525 2.495 0 3 C0 2.01 0 1.02 0 0 Z " fill="#25A765" transform="translate(226,213)"/>
<path d="M0 0 C3.98175544 2.10148204 6.35039045 4.36905358 9 8 C4.75153925 7.52794881 2.73180712 5.11122478 0 2 C0 1.34 0 0.68 0 0 Z " fill="#DAF6E7" transform="translate(174,188)"/>
<path d="M0 0 C2.875 0.25 2.875 0.25 6 1 C7.375 3.0625 7.375 3.0625 8 5 C4.20411134 4.45773019 2.52788007 2.79872437 0 0 Z " fill="#9DDCBD" transform="translate(390,115)"/>
<path d="M0 0 C-0.33 1.32 -0.66 2.64 -1 4 C-3.49064888 4.68707555 -5.37886292 5 -8 5 C-2.25 0 -2.25 0 0 0 Z " fill="#84A1C1" transform="translate(321,408)"/>
<path d="M0 0 C0.66 0.33 1.32 0.66 2 1 C1.34 2.32 0.68 3.64 0 5 C-1.98 5 -3.96 5 -6 5 C-4.06745228 2.9754262 -2.36841312 1.57894208 0 0 Z " fill="#7D9ABE" transform="translate(333,399)"/>
<path d="M0 0 C2.15157675 3.22736512 3.19090344 4.82730747 2.5625 8.6875 C2.376875 9.450625 2.19125 10.21375 2 11 C-0.67927341 6.98108988 -0.15601248 4.75838077 0 0 Z " fill="#B9E6CF" transform="translate(102,344)"/>
<path d="M0 0 C0.33 0 0.66 0 1 0 C1 2.64 1 5.28 1 8 C0.01 8.33 -0.98 8.66 -2 9 C-1.41196203 5.97580475 -0.77321882 2.98241547 0 0 Z " fill="#1EA45D" transform="translate(14,192)"/>
<path d="M0 0 C0 3 0 3 -1 6 C-1.66 6 -2.32 6 -3 6 C-3.33 6.66 -3.66 7.32 -4 8 C-4 4 -4 4 -2 1.75 C-1.01 0.88375 -1.01 0.88375 0 0 Z " fill="#D1DFEC" transform="translate(74,185)"/>
<path d="M0 0 C2.31 0.33 4.62 0.66 7 1 C7.33 1.99 7.66 2.98 8 4 C5.03 4 2.06 4 -1 4 C-0.67 2.68 -0.34 1.36 0 0 Z " fill="#51729E" transform="translate(38,123)"/>
<path d="M0 0 C0.99 0.33 1.98 0.66 3 1 C0.75 3.0625 0.75 3.0625 -2 5 C-4.3125 4.75 -4.3125 4.75 -6 4 C-3.1875 1.9375 -3.1875 1.9375 0 0 Z " fill="#8DA7C7" transform="translate(55,24)"/>
<path d="M0 0 C3 1 3 1 3 1 Z " fill="#FEFEFE" transform="translate(210,474)"/>
<path d="M0 0 C3 1 3 1 3 1 Z " fill="#FBF9F6" transform="translate(283,1)"/>
<path d="" fill="#FAFDFB" transform="translate(0,0)"/>
<path d="" fill="#FCFCFB" transform="translate(0,0)"/>
<path d="" fill="#FAFCF9" transform="translate(0,0)"/>
<path d="" fill="#FAFBFB" transform="translate(0,0)"/>
<path d="" fill="#F9FBF6" transform="translate(0,0)"/>
<path d="" fill="#F9FCF9" transform="translate(0,0)"/>
<path d="" fill="#F8F8F9" transform="translate(0,0)"/>
<path d="" fill="#F9F9F8" transform="translate(0,0)"/>
<path d="" fill="#FAFBFB" transform="translate(0,0)"/>
<path d="" fill="#FBFAFA" transform="translate(0,0)"/>
<path d="" fill="#F8F9F9" transform="translate(0,0)"/>
<path d="" fill="#F9FCFE" transform="translate(0,0)"/>
<path d="" fill="#FAFBFB" transform="translate(0,0)"/>
<path d="" fill="#F9FDF9" transform="translate(0,0)"/>
<path d="" fill="#F5FBFD" transform="translate(0,0)"/>
<path d="" fill="#FEFCFB" transform="translate(0,0)"/>
<path d="" fill="#FBFCFA" transform="translate(0,0)"/>
<path d="" fill="#F9F8F8" transform="translate(0,0)"/>
<path d="" fill="#FBFBFA" transform="translate(0,0)"/>
<path d="" fill="#FBFCF8" transform="translate(0,0)"/>
<path d="" fill="#FAFBF6" transform="translate(0,0)"/>
<path d="" fill="#FBF8F9" transform="translate(0,0)"/>
<path d="" fill="#FCF9F8" transform="translate(0,0)"/>
<path d="" fill="#FBF8FD" transform="translate(0,0)"/>
<path d="" fill="#F9FBFA" transform="translate(0,0)"/>
<path d="" fill="#F9FBFA" transform="translate(0,0)"/>
<path d="" fill="#FAF9F5" transform="translate(0,0)"/>
<path d="" fill="#F8FDF9" transform="translate(0,0)"/>
<path d="" fill="#F9FAF9" transform="translate(0,0)"/>
<path d="" fill="#FAFAFA" transform="translate(0,0)"/>
<path d="" fill="#F8FBF8" transform="translate(0,0)"/>
<path d="" fill="#FBFBF7" transform="translate(0,0)"/>
<path d="" fill="#FAFAF9" transform="translate(0,0)"/>
<path d="" fill="#FAFCF7" transform="translate(0,0)"/>
<path d="" fill="#F6F6F2" transform="translate(0,0)"/>
<path d="" fill="#FCFCF8" transform="translate(0,0)"/>
<path d="" fill="#FCFBF9" transform="translate(0,0)"/>
<path d="" fill="#FBFAF8" transform="translate(0,0)"/>
<path d="" fill="#FAFAFA" transform="translate(0,0)"/>
<path d="" fill="#F8FAF9" transform="translate(0,0)"/>
</svg>
