<?xml version="1.0" encoding="iso-8859-1"?>
<!-- Uploaded to: SVG Repo, www.svgrepo.com, Generator: SVG Repo Mixer Tools -->
<!DOCTYPE svg PUBLIC "-//W3C//DTD SVG 1.1//EN" "http://www.w3.org/Graphics/SVG/1.1/DTD/svg11.dtd">
<svg fill="#000000" height="800px" width="800px" version="1.1" id="Capa_1" xmlns="http://www.w3.org/2000/svg" xmlns:xlink="http://www.w3.org/1999/xlink" 
	 viewBox="0 0 303 303" xml:space="preserve">
<g>
	<circle cx="87.737" cy="84" r="12.892"/>
	<circle cx="215.263" cy="84" r="12.892"/>
	<ellipse cx="151.5" cy="245.167" rx="6.173" ry="8.667"/>
	<path d="M267.224,59.799c-1.11-31.908-26.945-58.141-58.815-59.721C184.49-1.105,162.815,11.405,151.5,31.076
		C140.185,11.404,118.501-1.116,94.589,0.079C62.718,1.66,36.885,27.893,35.776,59.801c-0.401,11.54,2.407,23.356,8.641,33.841
		c46.927,91.403,9.879,178.833,9.879,183.858c0,23.366,73.669,25.5,96.933,25.5c23.372,0,96.932-2.14,96.932-25.5
		c0-4.877-35.907-93.594,10.424-183.859C264.653,83.433,267.64,71.737,267.224,59.799z M205.146,109
		c-6.573,0-12.93-1.328-18.891-3.948c-3.789-1.666-8.217,0.057-9.884,3.849s0.057,8.217,3.849,9.884
		c7.875,3.461,16.262,5.216,24.926,5.216c9.695,0,18.875-2.241,27.056-6.226c-16.424,48.92-16.455,104.101,0.344,158.873
		C226.06,280.978,198.117,288,151.228,288c-46.824,0-74.756-7.003-81.292-11.335c17.389-54.304,17.557-109.468,0.93-158.797
		C78.999,121.797,88.116,124,97.738,124c8.664,0,17.051-1.755,24.926-5.216c3.792-1.667,5.516-6.092,3.849-9.884
		s-6.091-5.515-9.884-3.849c-5.961,2.62-12.317,3.948-18.891,3.948c-26.461,0-47.901-21.986-46.972-48.679
		c0.841-24.183,20.417-44.063,44.566-45.261c23.918-1.216,44.889,15.684,48.768,39.245c0.597,3.623,3.729,6.282,7.4,6.282
		s6.805-2.659,7.4-6.282c3.877-23.561,24.826-40.45,48.766-39.245c24.149,1.196,43.726,21.077,44.567,45.26
		C253.125,86.227,232.213,109,205.146,109z"/>
	<path d="M93.076,37.325c4.059-0.83,6.675-4.793,5.845-8.851c-0.83-4.059-4.8-6.677-8.851-5.845
		c-14.802,3.028-26.633,14.482-30.142,29.182c-0.962,4.028,1.524,8.074,5.554,9.036c0.585,0.14,1.171,0.207,1.747,0.207
		c3.392,0,6.467-2.317,7.289-5.761C76.679,46.243,83.963,39.189,93.076,37.325z"/>
	<circle cx="110.108" cy="29.977" r="7.5"/>
</g>
</svg>