<?xml version="1.0" encoding="iso-8859-1"?>
<!-- Uploaded to: SVG Repo, www.svgrepo.com, Generator: SVG Repo Mixer Tools -->
<!DOCTYPE svg PUBLIC "-//W3C//DTD SVG 1.1//EN" "http://www.w3.org/Graphics/SVG/1.1/DTD/svg11.dtd">
<svg fill="#000000" height="800px" width="800px" version="1.1" id="Capa_1" xmlns="http://www.w3.org/2000/svg" xmlns:xlink="http://www.w3.org/1999/xlink" 
	 viewBox="0 0 281 281" xml:space="preserve">
<g>
	<g>
		<path d="M179.885,25.588l-0.329-7.242C179.089,8.059,170.655,0,160.356,0h-39.713c-10.299,0-18.732,8.059-19.199,18.346
			l-0.329,7.243c-17.382,12.36-28.754,32.646-28.754,55.55V262.61c0,10.14,8.25,18.39,18.39,18.39h99.498
			c10.14,0,18.39-8.25,18.39-18.39V81.139C208.639,58.234,197.267,37.948,179.885,25.588z M116.429,19.026
			c0.103-2.258,1.954-4.026,4.215-4.026h39.713c2.261,0,4.112,1.769,4.215,4.027l2.86,62.915C159.279,78.72,150.038,77,140.5,77
			c-9.537,0-18.779,1.721-26.931,4.943L116.429,19.026z M163.798,96.682C158.847,105.205,149.824,110,140.646,110h-0.291
			c-9.092,0-18.157-4.72-23.153-13.318C124.006,93.641,132.056,92,140.5,92C148.944,92,156.995,93.641,163.798,96.682z
			 M193.639,262.61c0,1.869-1.521,3.39-3.39,3.39H90.751c-1.869,0-3.39-1.521-3.39-3.39V81.139c0-13.174,4.83-25.235,12.798-34.53
			l-1.577,34.68C97.503,105.066,116.542,125,140.354,125h0.291c23.803,0,42.852-19.923,41.771-43.712l-1.577-34.68
			c7.968,9.295,12.798,21.356,12.798,34.53V262.61z"/>
	</g>
	<g>
		<path d="M175.887,232.562h-70.775c-4.143,0-7.5,3.357-7.5,7.5s3.357,7.5,7.5,7.5h70.775c4.143,0,7.5-3.357,7.5-7.5
			S180.029,232.562,175.887,232.562z"/>
	</g>
</g>
</svg>