<?xml version="1.0" standalone="no"?>
<!DOCTYPE svg PUBLIC "-//W3C//DTD SVG 20010904//EN"
 "http://www.w3.org/TR/2001/REC-SVG-20010904/DTD/svg10.dtd">
<svg version="1.0" xmlns="http://www.w3.org/2000/svg"
 width="463.000000pt" height="539.000000pt" viewBox="0 0 463.000000 539.000000"
 preserveAspectRatio="xMidYMid meet">

<g transform="translate(0.000000,539.000000) scale(0.100000,-0.100000)"
fill="#000000" stroke="none">
<path d="M190 5380 c0 -5 11 -10 25 -10 14 0 25 5 25 10 0 6 -11 10 -25 10
-14 0 -25 -4 -25 -10z"/>
<path d="M116 5345 c-30 -23 -15 -25 24 -4 25 14 29 19 15 19 -11 0 -29 -7
-39 -15z"/>
<path d="M70 5309 c0 -5 5 -7 10 -4 6 3 10 8 10 11 0 2 -4 4 -10 4 -5 0 -10
-5 -10 -11z"/>
<path d="M385 5120 c-58 -15 -85 -30 -131 -72 -54 -49 -94 -109 -94 -138 0
-31 16 -24 49 23 60 86 154 156 234 172 15 3 27 10 27 15 0 11 -41 11 -85 0z"/>
<path d="M417 5043 c-26 -9 -67 -33 -91 -54 -47 -41 -106 -126 -106 -151 0
-20 78 -118 93 -118 7 1 30 23 51 51 50 62 126 121 199 154 l58 25 -47 55
c-54 62 -72 66 -157 38z"/>
<path d="M581 4875 c-77 -36 -145 -89 -186 -144 -37 -51 -43 -79 -23 -99 15
-15 28 -15 28 0 0 6 19 35 41 65 40 51 162 143 191 143 8 0 23 6 33 14 16 12
17 16 6 30 -18 21 -26 20 -90 -9z"/>
<path d="M704 4729 c-7 -13 0 -22 121 -159 50 -56 115 -130 145 -164 101 -116
203 -231 229 -261 14 -16 73 -83 131 -149 157 -177 216 -244 319 -363 52 -59
97 -110 100 -113 4 -3 40 -43 81 -90 41 -47 77 -87 80 -90 3 -3 36 -41 75 -85
38 -44 94 -107 125 -140 30 -33 98 -110 150 -170 52 -60 133 -152 180 -205 47
-52 114 -128 150 -169 36 -40 102 -104 148 -143 82 -69 106 -79 54 -23 -15 17
-43 48 -62 71 -51 59 -243 278 -250 284 -3 3 -57 64 -119 135 -62 72 -141 162
-175 200 -66 74 -158 179 -241 274 -27 32 -144 165 -260 297 -115 131 -226
257 -245 280 -19 23 -82 95 -140 160 -58 65 -117 133 -131 149 -168 192 -211
241 -273 309 -39 44 -88 101 -109 128 -37 46 -68 60 -83 37z"/>
<path d="M583 4668 l-22 -21 52 -62 c29 -34 76 -90 106 -126 29 -35 70 -82 90
-104 20 -22 63 -72 96 -110 33 -39 62 -72 65 -75 6 -5 149 -170 230 -265 83
-96 234 -270 240 -275 3 -3 28 -32 55 -65 28 -33 66 -78 86 -100 20 -22 50
-56 65 -75 16 -19 83 -96 149 -170 66 -74 147 -167 180 -205 33 -39 62 -72 65
-75 3 -3 28 -32 55 -65 102 -123 125 -142 227 -194 55 -29 103 -49 106 -46 3
3 -6 18 -19 33 -14 15 -48 52 -76 82 -28 30 -66 73 -84 95 -19 22 -55 63 -80
90 -26 28 -64 70 -84 95 -20 25 -56 65 -79 90 -22 25 -56 63 -75 85 -19 22
-69 78 -111 125 -43 47 -91 101 -106 120 -16 19 -50 58 -75 85 -25 28 -75 83
-110 123 -80 92 -154 176 -294 333 -60 68 -121 138 -136 154 -14 17 -59 68
-100 113 -114 129 -196 222 -292 331 -48 56 -91 101 -95 101 -4 0 -17 -10 -29
-22z"/>
<path d="M497 4574 c-21 -21 -17 -26 222 -305 68 -79 133 -155 145 -169 43
-51 152 -176 188 -215 20 -22 49 -56 65 -76 15 -19 54 -64 85 -100 69 -78 315
-363 418 -484 41 -49 98 -114 125 -145 28 -31 72 -82 98 -113 38 -45 150 -127
173 -127 7 0 -17 34 -52 73 -38 42 -196 224 -254 292 -43 50 -76 88 -249 286
-40 46 -110 126 -155 178 -44 52 -103 120 -131 151 -27 31 -88 100 -135 154
-47 55 -90 104 -95 110 -10 10 -51 58 -216 247 -31 35 -69 80 -85 99 -57 70
-140 151 -147 144z"/>
<path d="M1150 3058 c-294 -61 -357 -113 -449 -371 -33 -92 -49 -117 -236
-387 -98 -140 -190 -278 -206 -306 -51 -90 -45 -115 106 -393 40 -72 41 -94
19 -226 -22 -132 -35 -294 -28 -340 6 -39 31 -89 106 -218 21 -37 56 -104 77
-150 37 -78 39 -89 48 -228 9 -132 13 -151 39 -199 40 -73 93 -117 194 -158
50 -21 205 -38 455 -52 110 -5 224 -15 254 -20 73 -13 584 -13 576 0 -3 6 -17
10 -30 10 -13 0 -27 5 -30 10 -3 6 -13 10 -22 10 -23 0 -157 65 -768 372 -225
113 -271 135 -367 174 -27 10 -48 25 -48 32 0 22 89 12 150 -18 8 -4 42 -15
75 -25 33 -10 64 -22 70 -27 5 -4 17 -8 27 -8 10 0 26 -4 36 -9 9 -5 100 -41
202 -81 102 -40 248 -103 325 -140 129 -63 203 -97 295 -137 162 -70 184 -73
640 -84 629 -16 548 -20 759 34 l95 23 -105 36 c-190 66 -451 150 -544 176
-22 7 -80 23 -130 37 -49 14 -107 30 -127 35 -21 6 -55 14 -75 20 -162 41
-212 53 -242 54 -34 1 -35 0 -49 -59 -8 -33 -18 -68 -23 -77 -5 -10 -9 -24 -9
-31 0 -18 -28 -75 -41 -82 -19 -12 -21 29 -5 95 19 80 21 171 4 188 -16 16
-63 15 -75 0 -27 -34 -63 -168 -63 -231 0 -71 -13 -93 -37 -61 -16 21 -13 125
7 224 26 129 28 116 -31 142 -221 93 -448 230 -729 440 -58 43 -147 99 -197
124 -84 42 -98 45 -150 42 -32 -2 -64 -6 -72 -9 -8 -2 -16 4 -19 13 -4 20 27
35 93 47 l40 7 -55 42 c-30 23 -85 63 -122 88 -65 44 -86 74 -53 74 9 0 33
-11 55 -25 22 -14 42 -25 44 -25 3 0 54 -31 113 -69 113 -71 423 -264 458
-284 11 -7 38 -24 60 -38 129 -82 494 -281 570 -309 11 -5 36 -15 55 -23 39
-17 143 -50 205 -66 22 -5 78 -20 125 -32 47 -12 101 -25 120 -30 76 -18 116
-28 150 -38 19 -5 46 -13 60 -16 14 -4 54 -16 90 -27 36 -11 80 -24 98 -29 17
-5 48 -13 67 -19 19 -5 50 -14 68 -19 17 -5 40 -12 50 -16 14 -6 17 -1 17 31
1 61 50 165 135 280 5 7 7 15 5 17 -3 1 -57 37 -120 79 -63 42 -149 105 -192
140 -115 95 -156 126 -280 211 -118 82 -147 98 -412 235 -145 75 -385 232
-540 352 -180 140 -271 207 -302 223 -37 19 -162 61 -259 87 -50 13 -106 20
-169 20 -52 0 -97 4 -101 10 -3 5 9 16 26 25 25 14 51 16 128 12 99 -6 181
-18 216 -32 36 -15 0 19 -116 111 -60 47 -109 90 -109 94 0 26 30 16 103 -33
197 -134 265 -179 431 -287 97 -63 288 -189 424 -278 136 -90 258 -168 272
-173 98 -38 375 -193 510 -287 67 -46 234 -175 259 -200 24 -23 122 -94 206
-149 44 -29 85 -57 92 -63 7 -5 15 -10 18 -10 3 0 22 -11 43 -24 42 -26 191
-106 199 -106 2 0 -11 19 -31 43 -52 63 -76 128 -76 201 0 36 6 76 15 93 18
36 90 105 133 127 37 19 186 22 229 5 66 -27 79 -32 103 -43 14 -6 42 -21 63
-34 22 -13 41 -21 44 -18 10 9 -58 141 -90 175 -50 52 -177 156 -362 296 -192
145 -251 192 -345 275 -166 146 -416 364 -500 435 -165 139 -198 163 -315 225
-44 23 -116 62 -160 85 -71 38 -206 108 -405 212 -72 37 -114 75 -198 177
-104 127 -77 116 -296 115 -105 -1 -211 -6 -236 -11z m1304 -677 c17 -7 15
-10 -16 -29 -19 -12 -41 -22 -47 -22 -29 0 -149 -68 -186 -105 -62 -62 -84
-117 -116 -285 -27 -143 -49 -126 -49 36 0 77 5 124 15 150 56 140 145 215
299 249 73 16 76 16 100 6z m92 -188 c-3 -59 -11 -112 -16 -117 -6 -6 -10 -17
-10 -26 0 -23 -46 -115 -91 -181 -72 -107 -185 -179 -278 -179 -56 0 -67 15
-23 31 95 36 167 91 228 174 16 22 31 42 35 45 25 23 119 260 119 302 0 38 10
58 28 58 13 0 14 -14 8 -107z m124 -218 c0 -57 -61 -151 -133 -204 -64 -47
-122 -70 -138 -54 -8 8 14 36 86 104 53 51 110 113 126 136 34 48 59 56 59 18z
m610 -415 c0 -26 -223 -320 -243 -320 -32 0 70 170 162 273 48 52 81 72 81 47z
m130 -14 c0 -8 -15 -36 -32 -63 -18 -27 -39 -61 -47 -76 -8 -15 -18 -27 -23
-27 -4 0 -8 -5 -8 -11 0 -14 -129 -194 -173 -241 -19 -21 -40 -38 -46 -38 -14
0 -14 37 0 45 5 4 36 45 67 92 31 47 67 100 80 117 12 17 30 43 40 57 9 14 40
56 67 92 48 64 75 83 75 53z m-1340 -75 c0 -11 -14 -28 -34 -40 -48 -30 -122
-112 -141 -157 -41 -94 -54 -157 -63 -288 -4 -55 -12 -101 -17 -103 -6 -2 -17
12 -25 29 -20 45 -20 246 0 308 41 129 120 217 229 256 48 17 51 17 51 -5z
m66 -205 c-3 -17 -8 -47 -11 -66 -4 -19 -10 -44 -15 -55 -4 -11 -20 -51 -35
-88 -28 -69 -105 -167 -131 -167 -19 0 -18 19 5 66 21 45 49 110 61 139 18 49
84 182 98 197 21 24 35 11 28 -26z"/>
<path d="M2680 2713 c0 -5 14 -22 31 -39 17 -16 68 -72 112 -124 45 -52 98
-113 119 -135 20 -22 53 -61 75 -87 93 -113 236 -268 246 -268 7 0 31 23 55
50 40 46 72 64 72 40 0 -5 -15 -33 -34 -62 -53 -85 -53 -87 8 -154 l55 -59 1
47 c0 89 24 107 34 26 14 -116 47 -172 143 -244 43 -32 83 -62 88 -66 6 -5 64
-51 130 -104 222 -176 274 -228 317 -320 21 -45 38 -87 38 -93 0 -6 6 -11 14
-11 23 0 46 47 46 94 0 44 -4 49 -88 135 -125 127 -163 211 -127 280 16 31 33
41 72 41 24 0 25 2 19 38 -3 20 -9 93 -12 162 -8 186 -13 198 -106 283 -78 72
-166 126 -202 127 -20 0 -30 3 -146 41 -69 23 -275 122 -301 145 -8 8 -19 14
-23 14 -5 0 -78 48 -165 108 -86 59 -172 113 -192 120 -46 16 -279 29 -279 15z"/>
<path d="M4067 1603 c-14 -13 -6 -72 14 -110 25 -46 86 -120 93 -112 5 5 -4
39 -24 94 -5 11 -16 46 -25 78 -12 41 -22 57 -34 57 -10 0 -21 -3 -24 -7z"/>
<path d="M3635 1091 c-49 -29 -95 -97 -95 -140 0 -21 3 -40 6 -44 7 -6 69 26
97 51 25 22 47 77 47 118 0 38 -10 41 -55 15z"/>
<path d="M3740 1079 c0 -90 -49 -166 -134 -203 l-48 -22 52 -63 c69 -83 108
-100 223 -101 104 0 162 21 199 72 20 28 23 45 23 119 0 60 -4 91 -14 103 -24
28 -232 126 -268 126 -30 0 -33 -3 -33 -31z"/>
<path d="M4200 761 c0 -22 209 -253 221 -245 9 5 -42 71 -123 159 -20 22 -47
52 -60 68 -24 28 -38 34 -38 18z"/>
<path d="M3270 715 c0 -8 -15 -45 -34 -82 -80 -159 -95 -207 -73 -237 30 -40
78 12 126 139 13 33 27 69 31 80 21 52 20 58 -7 87 -30 31 -43 35 -43 13z"/>
<path d="M4112 647 c-37 -38 -38 -46 -14 -73 9 -10 50 -57 91 -103 69 -77 77
-82 105 -77 27 6 65 39 66 58 0 10 -192 223 -204 226 -6 1 -26 -12 -44 -31z"/>
<path d="M3367 618 c-8 -69 -45 -152 -89 -202 -22 -26 -39 -48 -37 -49 7 -5
194 -68 244 -83 28 -9 64 -19 81 -25 17 -5 41 -9 54 -9 l23 0 -21 23 c-18 19
-22 35 -22 86 0 34 4 70 9 79 5 9 12 35 15 58 l7 40 -121 62 c-67 34 -125 62
-130 62 -4 0 -10 -19 -13 -42z"/>
<path d="M3985 560 c-7 -11 20 -45 122 -152 57 -61 83 -80 83 -61 0 6 -101
131 -154 191 -31 34 -41 38 -51 22z"/>
<path d="M3706 498 c-3 -7 -9 -28 -15 -47 -14 -44 -14 -45 4 -27 15 14 35 59
35 77 0 14 -20 11 -24 -3z"/>
<path d="M3782 498 c-7 -7 -12 -20 -12 -31 0 -10 -23 -41 -51 -68 -37 -36 -49
-54 -44 -68 9 -30 180 -101 244 -101 43 0 125 46 117 66 -3 8 -45 59 -93 114
-75 86 -92 100 -118 100 -17 0 -36 -5 -43 -12z"/>
<path d="M4417 408 c-23 -48 -56 -75 -106 -87 -40 -9 -82 -35 -70 -44 17 -14
258 -177 262 -177 2 0 21 15 41 34 34 31 36 35 25 62 -28 68 -37 92 -58 149
-31 83 -35 90 -58 93 -15 2 -25 -6 -36 -30z"/>
<path d="M4566 81 l-27 -28 41 -13 c42 -14 62 -8 42 12 -7 7 -12 20 -12 29 0
30 -16 30 -44 0z"/>
</g>
</svg>
