<?xml version="1.0" encoding="iso-8859-1"?>
<!-- Uploaded to: SVG Repo, www.svgrepo.com, Generator: SVG Repo Mixer Tools -->
<!DOCTYPE svg PUBLIC "-//W3C//DTD SVG 1.1//EN" "http://www.w3.org/Graphics/SVG/1.1/DTD/svg11.dtd">
<svg fill="#000000" height="800px" width="800px" version="1.1" id="Capa_1" xmlns="http://www.w3.org/2000/svg" xmlns:xlink="http://www.w3.org/1999/xlink" 
	 viewBox="0 0 307.698 307.698" xml:space="preserve">
<g>
	<path d="M214.034,15c3.047,0,5.928,1.388,7.828,3.77c1.899,2.383,2.61,5.5,1.931,8.471L221.37,37.84
		c-6.087,26.631-3.913,54.484,6.233,79.848l8.119,20.298c9.346,23.364,13.03,48.608,10.752,73.669l-6.54,71.939
		c-0.469,5.156-4.792,9.104-9.969,9.104h-67.825v-72.302c7.868,7.388,18.44,11.926,30.059,11.926h8.347
		c3.839,0,6.951-3.111,6.951-6.95c0-3.839-3.111-6.951-6.951-6.951h-8.347c-16.575,0-30.059-13.484-30.059-30.059v-6.414v-1.854
		c0-3.839-3.111-6.951-6.951-6.951c-0.009,0-0.018,0.001-0.027,0.001s-0.018-0.001-0.027-0.001c-3.839,0-6.951,3.112-6.951,6.951
		v8.267c0,16.575-13.484,30.059-30.059,30.059h-10.201c-3.839,0-6.951,3.111-6.951,6.951c0,3.839,3.112,6.95,6.951,6.95h10.201
		c11.645,0,22.239-4.56,30.113-11.978v72.354H77.734c-5.177,0-9.501-3.948-9.969-9.104l-6.54-71.939
		c-2.278-25.061,1.406-50.304,10.752-73.669l8.119-20.298c10.145-25.364,12.319-53.217,6.233-79.848l-2.423-10.599
		c-0.679-2.97,0.032-6.088,1.931-8.471c1.899-2.382,4.781-3.77,7.828-3.77H214.034 M165.33,150.307c0.671,0,1.354-0.123,2.017-0.381
		l19.026-7.414c2.862-1.115,4.277-4.339,3.162-7.2c-0.858-2.198-2.957-3.542-5.183-3.542c-0.671,0-1.354,0.122-2.018,0.38
		l-19.026,7.414c-2.862,1.115-4.277,4.339-3.162,7.2C161.004,148.962,163.105,150.307,165.33,150.307 M142.368,150.307
		c2.225,0,4.326-1.346,5.183-3.543c1.115-2.862-0.3-6.085-3.162-7.2l-19.026-7.414c-0.662-0.257-1.344-0.379-2.015-0.379
		c-2.226,0-4.328,1.344-5.186,3.541c-1.115,2.862,0.301,6.085,3.162,7.2l19.026,7.414
		C141.014,150.184,141.697,150.307,142.368,150.307 M84.113,258.058c0.188,0,0.378-0.007,0.569-0.022
		c3.826-0.311,6.676-3.664,6.366-7.49l-3.426-42.252c-0.295-3.635-3.334-6.389-6.92-6.389c-0.188,0-0.379,0.008-0.57,0.023
		c-3.826,0.31-6.676,3.664-6.366,7.49l3.426,42.252C77.488,255.304,80.528,258.058,84.113,258.058 M86.555,277.003
		c3.839,0,6.951-3.112,6.951-6.951c0-3.839-3.112-6.951-6.951-6.951c-3.839,0-6.951,3.112-6.951,6.951
		C79.604,273.891,82.716,277.003,86.555,277.003 M214.034,0H93.665c-7.656,0-14.783,3.433-19.556,9.419
		c-4.773,5.987-6.531,13.701-4.826,21.164l2.423,10.599c5.433,23.769,3.518,48.297-5.537,70.935l-8.119,20.298
		c-10.176,25.44-14.244,53.31-11.763,80.598l6.54,71.939c1.178,12.967,11.886,22.746,24.908,22.746h70.504h15h66.726
		c13.021,0,23.729-9.779,24.908-22.747l6.54-71.938c2.481-27.287-1.587-55.158-11.763-80.598l-8.119-20.298
		c-9.055-22.637-10.969-47.166-5.537-70.935l2.423-10.599c1.706-7.463-0.053-15.177-4.825-21.163C228.817,3.433,221.689,0,214.034,0
		L214.034,0z"/>
</g>
</svg>