<?xml version="1.0" encoding="iso-8859-1"?>
<!-- Uploaded to: SVG Repo, www.svgrepo.com, Generator: SVG Repo Mixer Tools -->
<!DOCTYPE svg PUBLIC "-//W3C//DTD SVG 1.1//EN" "http://www.w3.org/Graphics/SVG/1.1/DTD/svg11.dtd">
<svg fill="#000000" height="800px" width="800px" version="1.1" id="Capa_1" xmlns="http://www.w3.org/2000/svg" xmlns:xlink="http://www.w3.org/1999/xlink" 
	 viewBox="0 0 317.558 317.558" xml:space="preserve">
<g>
	<g>
		<path d="M235.111,135.097l6.169-4.894c12.001-9.641,18.856-23.896,18.81-39.108c-0.048-15.237-6.917-29.403-18.847-38.864
			c-10.417-8.263-23.429-11.973-36.637-10.45c-13.209,1.524-25.033,8.101-33.296,18.518c-3.053,3.849-7.62,6.056-12.531,6.056
			s-9.479-2.207-12.559-6.091c-9.607-11.961-23.797-18.811-38.954-18.811c-0.052,0-0.104,0-0.155,0
			C91.875,41.5,77.709,48.369,68.247,60.3c-8.263,10.417-11.974,23.429-10.45,36.638c1.524,13.209,8.101,25.033,18.519,33.297
			l6.134,4.863c4.843,3.841,7.899,9.338,8.608,15.479c0.708,6.141-1.018,12.189-4.857,17.032
			c-9.862,12.43-9.862,29.795-0.001,42.228c5.64,7.111,13.711,11.6,22.727,12.641c9.017,1.035,17.897-1.491,25.008-7.133
			c14.628-11.603,35.063-11.603,49.69-0.001c6.216,4.932,13.663,7.397,21.113,7.397c7.448-0.001,14.899-2.466,21.115-7.396
			c14.679-11.642,17.149-33.056,5.507-47.734C223.431,157.611,225.113,143.027,235.111,135.097z M225.79,123.345
			c-16.479,13.068-19.252,37.106-6.183,53.584c6.503,8.199,5.123,20.159-3.075,26.662c-6.947,5.508-16.645,5.508-23.586,0
			c-10.06-7.979-22.11-11.967-34.167-11.967c-12.053,0-24.109,3.99-34.166,11.967c-3.972,3.148-8.927,4.564-13.968,3.983
			c-5.036-0.581-9.544-3.088-12.694-7.061c-5.508-6.943-5.508-16.642,0-23.584c6.331-7.982,9.175-17.952,8.008-28.073
			c-1.168-10.121-6.207-19.182-14.189-25.513l-6.134-4.863c-15.024-11.917-17.554-33.836-5.637-48.86
			c6.611-8.336,16.51-13.135,27.158-13.168c0.036,0,0.071,0,0.107,0c10.586,0,20.518,4.809,27.231,13.167
			c5.914,7.457,14.765,11.734,24.283,11.734c9.518,0,18.368-4.276,24.283-11.734c5.772-7.277,14.034-11.872,23.263-12.938
			c9.231-1.065,18.319,1.528,25.598,7.301c8.334,6.61,13.134,16.51,13.167,27.158c0.033,10.626-4.779,20.602-13.168,27.34
			L225.79,123.345z"/>
	</g>
	<g>
		<path d="M294.058,144.096c-1.848,0-3.564-0.917-4.592-2.452c-5.175-7.735-13.813-12.354-23.109-12.354
			c-15.328,0-27.799,12.47-27.799,27.798c0,9.564,4.825,18.34,12.908,23.475c2.566,1.63,4.16,4.536,4.16,7.585v77.175
			c0,5.948,4.84,10.788,10.789,10.788h16.951c5.949,0,10.789-4.84,10.789-10.788v-74.227c12.913-0.053,23.402-10.574,23.402-23.5
			C317.558,154.638,307.016,144.096,294.058,144.096z M294.058,176.096c-3.981,0-7.724,1.55-10.54,4.366
			c-2.813,2.815-4.362,6.557-4.362,10.537v70.111h-8.529v-72.963c0-8.257-4.156-15.825-11.118-20.247
			c-3.726-2.366-5.95-6.408-5.95-10.813c0-7.057,5.741-12.798,12.799-12.798c4.278,0,8.257,2.129,10.643,5.693
			c3.816,5.706,10.193,9.112,17.059,9.112c4.687,0,8.5,3.813,8.5,8.5S298.744,176.096,294.058,176.096z"/>
	</g>
	<g>
		<path d="M51.202,129.291c-9.296,0-17.935,4.618-23.109,12.353c-1.027,1.536-2.745,2.453-4.593,2.453
			c-12.958,0-23.5,10.542-23.5,23.5c0,12.926,10.49,23.447,23.403,23.5v74.227c0,5.948,4.84,10.788,10.788,10.788h16.952
			c5.948,0,10.788-4.84,10.788-10.788v-77.175c0-3.049,1.595-5.955,4.163-7.586C74.176,175.428,79,166.653,79,157.089
			C79,141.76,66.53,129.291,51.202,129.291z M58.052,167.901c-6.963,4.421-11.12,11.99-11.12,20.247v72.963h-8.528V191
			c0-3.981-1.55-7.724-4.364-10.539c-2.815-2.814-6.558-4.364-10.539-4.364c-4.687,0-8.5-3.813-8.5-8.5s3.813-8.5,8.5-8.5
			c6.864,0,13.241-3.406,17.06-9.112c2.386-3.564,6.364-5.693,10.643-5.693c7.057,0,12.798,5.741,12.798,12.798
			C64,161.492,61.775,165.535,58.052,167.901z"/>
	</g>
	<g>
		<path d="M110.729,64.794c-14.693,0-26.647,11.954-26.647,26.647c0,4.143,3.357,7.5,7.5,7.5s7.5-3.357,7.5-7.5
			c0-6.423,5.225-11.647,11.647-11.647c4.143,0,7.5-3.357,7.5-7.5S114.871,64.794,110.729,64.794z"/>
	</g>
</g>
</svg>