<?xml version="1.0" standalone="no"?>
<!DOCTYPE svg PUBLIC "-//W3C//DTD SVG 20010904//EN"
 "http://www.w3.org/TR/2001/REC-SVG-20010904/DTD/svg10.dtd">
<svg version="1.0" xmlns="http://www.w3.org/2000/svg"
 width="512.000000pt" height="512.000000pt" viewBox="0 0 512.000000 512.000000"
 preserveAspectRatio="xMidYMid meet">

<g transform="translate(0.000000,512.000000) scale(0.100000,-0.100000)"
fill="#000000" stroke="none">
<path d="M1120 4640 l0 -480 -347 0 c-272 0 -362 -4 -411 -15 -176 -42 -315
-181 -351 -353 -15 -71 -16 -2355 -1 -2433 35 -185 190 -336 391 -384 50 -11
134 -15 392 -15 l327 0 0 -480 0 -480 1175 0 c646 0 1175 2 1175 4 0 2 -19 15
-42 29 -24 14 -71 48 -106 76 l-62 51 -990 0 -990 0 0 480 0 480 800 0 799 0
5 33 c3 17 8 53 11 80 l6 47 -890 0 -891 0 0 -80 0 -80 -69 0 c-81 0 -80 -3
-25 117 41 91 89 158 130 183 31 19 55 20 912 20 l880 0 27 68 c15 37 29 73
32 80 8 19 -1795 18 -1860 -2 -127 -38 -246 -193 -308 -399 l-20 -68 -202 3
c-196 3 -204 4 -257 30 -77 38 -130 86 -165 149 l-30 54 -3 1199 c-3 1339 -7
1254 67 1338 22 24 63 57 92 73 51 28 62 30 187 33 l132 4 0 -174 c0 -96 5
-201 11 -234 34 -188 193 -350 378 -384 34 -6 592 -10 1540 -10 1624 0 1554
-2 1665 58 72 39 149 118 186 191 47 95 60 171 60 374 l0 179 133 -4 c124 -3
135 -5 186 -33 29 -16 70 -49 91 -73 74 -83 70 -26 70 -1086 l0 -950 24 -25
c13 -15 49 -61 80 -105 l56 -78 0 1045 c0 731 -3 1062 -11 1099 -36 173 -174
311 -350 353 -51 12 -137 15 -411 15 l-348 0 0 480 0 480 -1440 0 -1440 0 0
-480z m2720 -80 l0 -400 -1280 0 -1280 0 0 400 0 400 1280 0 1280 0 0 -400z
m478 -767 c-3 -195 -5 -211 -27 -255 -29 -60 -87 -120 -143 -150 l-43 -23
-1530 -3 -1530 -2 -62 30 c-75 37 -135 102 -163 176 -17 48 -20 78 -20 244 l0
190 1761 0 1760 0 -3 -207z"/>
<path d="M500 3031 c-112 -36 -174 -119 -174 -231 0 -138 96 -234 234 -234
138 0 234 96 234 234 0 96 -44 169 -128 212 -43 22 -128 32 -166 19z m115
-176 c50 -49 15 -135 -55 -135 -41 0 -80 39 -80 80 0 41 39 80 80 80 19 0 40
-9 55 -25z"/>
<path d="M1140 3031 c-112 -36 -174 -119 -174 -231 0 -137 95 -233 234 -234
137 -1 235 97 234 234 -1 96 -45 169 -128 212 -43 22 -128 32 -166 19z m115
-176 c50 -49 15 -135 -55 -135 -41 0 -80 39 -80 80 0 41 39 80 80 80 19 0 40
-9 55 -25z"/>
<path d="M3925 2066 c-235 -39 -417 -133 -585 -305 -199 -202 -294 -437 -294
-721 0 -284 95 -519 294 -721 136 -138 288 -231 460 -278 363 -101 743 0 1011
268 308 307 393 770 215 1157 -113 244 -329 448 -575 543 -156 60 -369 83
-526 57z m395 -165 c297 -86 535 -325 622 -626 20 -68 23 -103 23 -235 0 -132
-3 -167 -23 -235 -88 -303 -324 -539 -627 -627 -68 -20 -103 -23 -235 -23
-132 0 -167 3 -235 23 -302 87 -539 324 -625 622 -31 107 -38 298 -16 411 71
349 343 626 691 703 102 23 324 15 425 -13z"/>
<path d="M4000 1516 l0 -84 -37 -12 c-21 -7 -52 -20 -69 -30 l-32 -18 -58 59
-58 59 -58 -57 -58 -57 61 -62 c35 -36 57 -64 50 -68 -5 -4 -20 -34 -32 -66
l-22 -60 -83 0 -84 0 0 -80 0 -80 84 0 83 0 22 -60 c12 -32 27 -62 32 -66 7
-4 -15 -32 -50 -68 l-61 -62 58 -57 58 -57 58 59 58 59 32 -18 c17 -10 48 -23
69 -30 l37 -12 0 -84 0 -84 80 0 80 0 0 84 0 83 60 22 c32 12 62 27 66 32 4 7
32 -15 68 -50 l62 -61 57 58 57 58 -59 58 -59 58 18 32 c10 17 23 48 30 69
l12 37 84 0 84 0 0 80 0 80 -84 0 -83 0 -22 60 c-12 32 -27 62 -32 66 -7 4 16
33 52 70 l64 64 -58 57 -57 58 -64 -64 c-37 -36 -66 -59 -70 -52 -4 5 -34 20
-66 32 l-60 22 0 83 0 84 -80 0 -80 0 0 -84z m175 -255 c88 -40 145 -126 145
-221 0 -213 -258 -320 -409 -169 -151 151 -44 409 169 409 32 0 72 -8 95 -19z"/>
<path d="M1600 880 l0 -80 651 0 650 0 -6 48 c-3 26 -8 62 -11 80 l-5 32 -639
0 -640 0 0 -80z"/>
</g>
</svg>
