<?xml version="1.0" encoding="iso-8859-1"?>
<!-- Uploaded to: SVG Repo, www.svgrepo.com, Generator: SVG Repo Mixer Tools -->
<!DOCTYPE svg PUBLIC "-//W3C//DTD SVG 1.1//EN" "http://www.w3.org/Graphics/SVG/1.1/DTD/svg11.dtd">
<svg fill="#000000" height="800px" width="800px" version="1.1" id="Capa_1" xmlns="http://www.w3.org/2000/svg" xmlns:xlink="http://www.w3.org/1999/xlink" 
	 viewBox="0 0 277.034 277.034" xml:space="preserve">
<g>
	<path d="M138.517,15c12.033,0,21.787,9.754,21.787,21.787v19.569c12-2.792,20.587-7.647,23.977-12.465
		c2.511-3.568,6.501-5.474,10.556-5.474c2.564,0,5.153,0.762,7.41,2.349c5.824,4.098,7.223,12.141,3.125,17.965
		c-8.215,11.675-24.875,20.269-45.067,23.896v19.2c24.148-3.586,40.667-12.786,46.777-21.469c2.598-3.691,6.727-5.664,10.921-5.664
		c2.652,0,5.331,0.789,7.664,2.431c6.025,4.24,7.473,12.56,3.233,18.585c-11.96,16.998-37.717,29.094-68.594,32.998v23.738
		c3.267,0.186,6.714,0.298,10.248,0.298c15.753,0,33.212-2.218,43.886-9.937c5.637-4.077,8.707-9.235,9.661-16.23
		c0.912-6.688,6.629-11.538,13.197-11.538c0.601,0,1.209,0.041,1.821,0.124c7.3,0.995,12.41,7.719,11.414,15.018
		c-1.927,14.132-9.017,25.984-20.505,34.275c-16.061,11.592-38.45,14.956-59.151,14.956c-3.588,0-7.127-0.101-10.572-0.278v32.833
		c9.544,10.55,24.458,23.35,40.648,23.35c2.75,0,5.539-0.37,8.343-1.183c11.724-3.398,18.176-10.364,20.304-21.92
		c1.84-9.992-0.446-19.392-0.469-19.485c-1.852-7.13,2.435-14.379,9.566-16.231c1.117-0.29,2.238-0.428,3.342-0.428
		c5.936,0,11.368,4.005,12.93,10.019c0.376,1.448,3.604,14.599,1.061,29.851c-3.661,21.971-17.621,37.532-39.308,43.818
		c-5.366,1.555-10.655,2.276-15.848,2.276c-20.275,0-39.043-11.005-54.749-26.386c-2.368,0.883-4.931,1.368-7.607,1.368
		c-2.677,0-5.239-0.485-7.608-1.368c-15.711,15.385-34.474,26.386-54.748,26.386c-5.191,0-10.485-0.722-15.848-2.276
		c-21.687-6.286-35.646-21.847-39.308-43.818c-2.543-15.252,0.685-28.403,1.061-29.851c1.561-6.007,6.976-9.988,12.906-9.988
		c1.109,0,2.235,0.139,3.358,0.43c7.13,1.852,11.409,9.134,9.558,16.263c-0.007,0.029-2.293,9.428-0.452,19.42
		c2.129,11.557,8.58,18.522,20.304,21.92c2.763,0.801,5.512,1.165,8.23,1.165c16.153,0,31.165-12.869,40.761-23.427v-32.739
		c-3.446,0.177-6.982,0.278-10.573,0.278c-20.691,0-43.086-3.363-59.15-14.956c-11.487-8.291-18.578-20.143-20.505-34.275
		c-0.995-7.299,4.114-14.023,11.414-15.018c0.613-0.084,1.222-0.125,1.824-0.125c6.564,0,12.282,4.853,13.194,11.539
		c0.955,7.005,4.033,12.168,9.684,16.247c10.709,7.729,28.108,9.951,43.813,9.951c3.55,0,7.017-0.114,10.297-0.303v-23.763
		c-30.877-3.903-56.634-16-68.595-32.998c-4.24-6.025-2.792-14.345,3.233-18.585c2.334-1.643,5.012-2.432,7.664-2.431
		c4.194,0,8.323,1.973,10.921,5.664c6.109,8.683,22.629,17.883,46.777,21.469v-19.2c-20.192-3.627-36.851-12.221-45.067-23.896
		c-4.098-5.824-2.699-13.867,3.125-17.965c2.257-1.588,4.845-2.35,7.409-2.35c4.055,0,8.046,1.908,10.556,5.475
		c3.39,4.818,11.977,9.673,23.977,12.465V36.787C116.73,24.754,126.484,15,138.517,15 M131.579,125.341
		c3.684,0,6.669-2.985,6.669-6.669v-73.67c0-3.684-2.986-6.669-6.669-6.669c-3.684,0-6.669,2.985-6.669,6.669v73.67
		C124.91,122.356,127.895,125.341,131.579,125.341 M131.579,146.626c3.683,0,6.669-2.986,6.669-6.669s-2.986-6.669-6.669-6.669
		c-3.683,0-6.669,2.986-6.669,6.669S127.896,146.626,131.579,146.626 M138.517,0c-18.571,0-33.971,13.83-36.441,31.733
		c-5.199-5.271-12.352-8.316-19.878-8.317c-5.769,0-11.316,1.757-16.042,5.083c-10.229,7.198-14.146,20.072-10.492,31.395
		c-4.64,0.551-9.056,2.24-12.93,4.967c-11.598,8.161-15.207,23.507-9.051,35.828c-6.59,1.424-12.4,5.113-16.527,10.544
		c-4.58,6.027-6.539,13.476-5.516,20.976c1.59,11.663,5.901,22.13,12.675,30.972c-8.108,3.296-14.462,10.266-16.767,19.135
		c-0.749,2.884-4.328,18.162-1.339,36.091c4.594,27.569,22.792,47.893,49.927,55.759c6.57,1.904,13.307,2.869,20.024,2.869
		c20.06,0,40.42-8.664,59.279-25.145c1.02,0.085,2.047,0.127,3.078,0.127c1.031,0,2.057-0.042,3.077-0.127
		c18.858,16.482,39.218,25.145,59.279,25.145c6.717,0,13.454-0.965,20.023-2.869c27.137-7.866,45.334-28.19,49.929-55.76
		c2.989-17.928-0.591-33.206-1.339-36.086c-2.304-8.874-8.652-15.849-16.755-19.155c6.767-8.839,11.073-19.3,12.662-30.956
		c1.023-7.5-0.936-14.949-5.516-20.976c-4.126-5.429-9.934-9.117-16.528-10.543c6.156-12.32,2.547-27.667-9.052-35.829
		c-3.872-2.725-8.289-4.414-12.928-4.965c3.654-11.323-0.262-24.197-10.491-31.395c-4.729-3.326-10.275-5.082-16.042-5.082
		c-7.526,0-14.679,3.046-19.878,8.316C172.488,13.831,157.088,0,138.517,0L138.517,0z M62.47,196.314
		c0.634-2.535,0.903-5.078,0.84-7.575c11.208,3.425,24.042,5.307,38.42,5.625v11.485c-9.385,9.243-18.598,14.451-25.761,14.451
		c-1.4,0-2.726-0.187-4.053-0.572c-7.006-2.031-8.773-5.038-9.729-10.231C61.041,203.276,62.322,196.997,62.47,196.314
		L62.47,196.314z M175.303,194.364c14.367-0.318,27.191-2.197,38.393-5.616c-0.052,2.504,0.231,5.031,0.857,7.525
		c0.145,0.665,1.445,6.973,0.293,13.225c-0.956,5.192-2.723,8.2-9.728,10.23c-1.369,0.397-2.732,0.59-4.167,0.59
		c-7.18,0-16.352-5.173-25.648-14.357V194.364L175.303,194.364z"/>
</g>
</svg>